%TF.GenerationSoftware,KiCad,Pcbnew,(6.0.5-0)*%
%TF.CreationDate,2022-07-22T00:16:16-04:00*%
%TF.ProjectId,YWS_clock,5957535f-636c-46f6-936b-2e6b69636164,rev?*%
%TF.SameCoordinates,PX4b17a20PY8a12ae0*%
%TF.FileFunction,Legend,Top*%
%TF.FilePolarity,Positive*%
%FSLAX46Y46*%
G04 Gerber Fmt 4.6, Leading zero omitted, Abs format (unit mm)*
G04 Created by KiCad (PCBNEW (6.0.5-0)) date 2022-07-22 00:16:16*
%MOMM*%
%LPD*%
G01*
G04 APERTURE LIST*
G04 Aperture macros list*
%AMRoundRect*
0 Rectangle with rounded corners*
0 $1 Rounding radius*
0 $2 $3 $4 $5 $6 $7 $8 $9 X,Y pos of 4 corners*
0 Add a 4 corners polygon primitive as box body*
4,1,4,$2,$3,$4,$5,$6,$7,$8,$9,$2,$3,0*
0 Add four circle primitives for the rounded corners*
1,1,$1+$1,$2,$3*
1,1,$1+$1,$4,$5*
1,1,$1+$1,$6,$7*
1,1,$1+$1,$8,$9*
0 Add four rect primitives between the rounded corners*
20,1,$1+$1,$2,$3,$4,$5,0*
20,1,$1+$1,$4,$5,$6,$7,0*
20,1,$1+$1,$6,$7,$8,$9,0*
20,1,$1+$1,$8,$9,$2,$3,0*%
G04 Aperture macros list end*
%ADD10C,0.150000*%
%ADD11C,0.120000*%
%ADD12R,1.600000X1.600000*%
%ADD13O,1.600000X1.600000*%
%ADD14C,2.000000*%
%ADD15R,2.000000X2.000000*%
%ADD16C,3.200000*%
%ADD17R,1.400000X1.150000*%
%ADD18R,1.800000X1.000000*%
%ADD19R,1.150000X1.400000*%
%ADD20C,1.524000*%
%ADD21R,1.700000X1.700000*%
%ADD22O,1.700000X1.700000*%
%ADD23R,1.600000X1.400000*%
%ADD24C,1.600000*%
%ADD25R,4.500000X2.000000*%
%ADD26R,1.200000X2.200000*%
%ADD27R,5.800000X6.400000*%
%ADD28R,3.000000X3.000000*%
%ADD29C,3.000000*%
%ADD30RoundRect,0.243750X0.243750X0.456250X-0.243750X0.456250X-0.243750X-0.456250X0.243750X-0.456250X0*%
%ADD31RoundRect,0.500000X1.750000X0.500000X-1.750000X0.500000X-1.750000X-0.500000X1.750000X-0.500000X0*%
%ADD32RoundRect,0.500000X-0.500000X1.500000X-0.500000X-1.500000X0.500000X-1.500000X0.500000X1.500000X0*%
G04 APERTURE END LIST*
D10*
%TO.C,U5*%
X137677380Y39868096D02*
X138486904Y39868096D01*
X138582142Y39915715D01*
X138629761Y39963334D01*
X138677380Y40058572D01*
X138677380Y40249048D01*
X138629761Y40344286D01*
X138582142Y40391905D01*
X138486904Y40439524D01*
X137677380Y40439524D01*
X137677380Y41391905D02*
X137677380Y40915715D01*
X138153571Y40868096D01*
X138105952Y40915715D01*
X138058333Y41010953D01*
X138058333Y41249048D01*
X138105952Y41344286D01*
X138153571Y41391905D01*
X138248809Y41439524D01*
X138486904Y41439524D01*
X138582142Y41391905D01*
X138629761Y41344286D01*
X138677380Y41249048D01*
X138677380Y41010953D01*
X138629761Y40915715D01*
X138582142Y40868096D01*
%TO.C,TP1*%
X102878095Y30485620D02*
X103449523Y30485620D01*
X103163809Y29485620D02*
X103163809Y30485620D01*
X103782857Y29485620D02*
X103782857Y30485620D01*
X104163809Y30485620D01*
X104259047Y30438000D01*
X104306666Y30390381D01*
X104354285Y30295143D01*
X104354285Y30152286D01*
X104306666Y30057048D01*
X104259047Y30009429D01*
X104163809Y29961810D01*
X103782857Y29961810D01*
X105306666Y29485620D02*
X104735238Y29485620D01*
X105020952Y29485620D02*
X105020952Y30485620D01*
X104925714Y30342762D01*
X104830476Y30247524D01*
X104735238Y30199905D01*
%TO.C,BZ1*%
X32099047Y17401429D02*
X32241904Y17353810D01*
X32289523Y17306191D01*
X32337142Y17210953D01*
X32337142Y17068096D01*
X32289523Y16972858D01*
X32241904Y16925239D01*
X32146666Y16877620D01*
X31765714Y16877620D01*
X31765714Y17877620D01*
X32099047Y17877620D01*
X32194285Y17830000D01*
X32241904Y17782381D01*
X32289523Y17687143D01*
X32289523Y17591905D01*
X32241904Y17496667D01*
X32194285Y17449048D01*
X32099047Y17401429D01*
X31765714Y17401429D01*
X32670476Y17877620D02*
X33337142Y17877620D01*
X32670476Y16877620D01*
X33337142Y16877620D01*
X34241904Y16877620D02*
X33670476Y16877620D01*
X33956190Y16877620D02*
X33956190Y17877620D01*
X33860952Y17734762D01*
X33765714Y17639524D01*
X33670476Y17591905D01*
%TO.C,H4*%
X135498095Y8527620D02*
X135498095Y9527620D01*
X135498095Y9051429D02*
X136069523Y9051429D01*
X136069523Y8527620D02*
X136069523Y9527620D01*
X136974285Y9194286D02*
X136974285Y8527620D01*
X136736190Y9575239D02*
X136498095Y8860953D01*
X137117142Y8860953D01*
%TO.C,C9*%
X11137142Y32613334D02*
X11184761Y32565715D01*
X11232380Y32422858D01*
X11232380Y32327620D01*
X11184761Y32184762D01*
X11089523Y32089524D01*
X10994285Y32041905D01*
X10803809Y31994286D01*
X10660952Y31994286D01*
X10470476Y32041905D01*
X10375238Y32089524D01*
X10280000Y32184762D01*
X10232380Y32327620D01*
X10232380Y32422858D01*
X10280000Y32565715D01*
X10327619Y32613334D01*
X11232380Y33089524D02*
X11232380Y33280000D01*
X11184761Y33375239D01*
X11137142Y33422858D01*
X10994285Y33518096D01*
X10803809Y33565715D01*
X10422857Y33565715D01*
X10327619Y33518096D01*
X10280000Y33470477D01*
X10232380Y33375239D01*
X10232380Y33184762D01*
X10280000Y33089524D01*
X10327619Y33041905D01*
X10422857Y32994286D01*
X10660952Y32994286D01*
X10756190Y33041905D01*
X10803809Y33089524D01*
X10851428Y33184762D01*
X10851428Y33375239D01*
X10803809Y33470477D01*
X10756190Y33518096D01*
X10660952Y33565715D01*
%TO.C,C6*%
X41887142Y4913334D02*
X41934761Y4865715D01*
X41982380Y4722858D01*
X41982380Y4627620D01*
X41934761Y4484762D01*
X41839523Y4389524D01*
X41744285Y4341905D01*
X41553809Y4294286D01*
X41410952Y4294286D01*
X41220476Y4341905D01*
X41125238Y4389524D01*
X41030000Y4484762D01*
X40982380Y4627620D01*
X40982380Y4722858D01*
X41030000Y4865715D01*
X41077619Y4913334D01*
X40982380Y5770477D02*
X40982380Y5580000D01*
X41030000Y5484762D01*
X41077619Y5437143D01*
X41220476Y5341905D01*
X41410952Y5294286D01*
X41791904Y5294286D01*
X41887142Y5341905D01*
X41934761Y5389524D01*
X41982380Y5484762D01*
X41982380Y5675239D01*
X41934761Y5770477D01*
X41887142Y5818096D01*
X41791904Y5865715D01*
X41553809Y5865715D01*
X41458571Y5818096D01*
X41410952Y5770477D01*
X41363333Y5675239D01*
X41363333Y5484762D01*
X41410952Y5389524D01*
X41458571Y5341905D01*
X41553809Y5294286D01*
%TO.C,Y1*%
X89576190Y7143810D02*
X90052380Y7143810D01*
X89052380Y6810477D02*
X89576190Y7143810D01*
X89052380Y7477143D01*
X90052380Y8334286D02*
X90052380Y7762858D01*
X90052380Y8048572D02*
X89052380Y8048572D01*
X89195238Y7953334D01*
X89290476Y7858096D01*
X89338095Y7762858D01*
%TO.C,U3*%
X98308095Y16837620D02*
X98308095Y16028096D01*
X98355714Y15932858D01*
X98403333Y15885239D01*
X98498571Y15837620D01*
X98689047Y15837620D01*
X98784285Y15885239D01*
X98831904Y15932858D01*
X98879523Y16028096D01*
X98879523Y16837620D01*
X99260476Y16837620D02*
X99879523Y16837620D01*
X99546190Y16456667D01*
X99689047Y16456667D01*
X99784285Y16409048D01*
X99831904Y16361429D01*
X99879523Y16266191D01*
X99879523Y16028096D01*
X99831904Y15932858D01*
X99784285Y15885239D01*
X99689047Y15837620D01*
X99403333Y15837620D01*
X99308095Y15885239D01*
X99260476Y15932858D01*
%TO.C,R16*%
X6977142Y10597620D02*
X6643809Y11073810D01*
X6405714Y10597620D02*
X6405714Y11597620D01*
X6786666Y11597620D01*
X6881904Y11550000D01*
X6929523Y11502381D01*
X6977142Y11407143D01*
X6977142Y11264286D01*
X6929523Y11169048D01*
X6881904Y11121429D01*
X6786666Y11073810D01*
X6405714Y11073810D01*
X7929523Y10597620D02*
X7358095Y10597620D01*
X7643809Y10597620D02*
X7643809Y11597620D01*
X7548571Y11454762D01*
X7453333Y11359524D01*
X7358095Y11311905D01*
X8786666Y11597620D02*
X8596190Y11597620D01*
X8500952Y11550000D01*
X8453333Y11502381D01*
X8358095Y11359524D01*
X8310476Y11169048D01*
X8310476Y10788096D01*
X8358095Y10692858D01*
X8405714Y10645239D01*
X8500952Y10597620D01*
X8691428Y10597620D01*
X8786666Y10645239D01*
X8834285Y10692858D01*
X8881904Y10788096D01*
X8881904Y11026191D01*
X8834285Y11121429D01*
X8786666Y11169048D01*
X8691428Y11216667D01*
X8500952Y11216667D01*
X8405714Y11169048D01*
X8358095Y11121429D01*
X8310476Y11026191D01*
%TO.C,D4*%
X88161904Y76047620D02*
X88161904Y77047620D01*
X88400000Y77047620D01*
X88542857Y77000000D01*
X88638095Y76904762D01*
X88685714Y76809524D01*
X88733333Y76619048D01*
X88733333Y76476191D01*
X88685714Y76285715D01*
X88638095Y76190477D01*
X88542857Y76095239D01*
X88400000Y76047620D01*
X88161904Y76047620D01*
X89590476Y76714286D02*
X89590476Y76047620D01*
X89352380Y77095239D02*
X89114285Y76380953D01*
X89733333Y76380953D01*
X98709523Y72047620D02*
X98138095Y72047620D01*
X98423809Y72047620D02*
X98423809Y73047620D01*
X98328571Y72904762D01*
X98233333Y72809524D01*
X98138095Y72761905D01*
X99566666Y73047620D02*
X99376190Y73047620D01*
X99280952Y73000000D01*
X99233333Y72952381D01*
X99138095Y72809524D01*
X99090476Y72619048D01*
X99090476Y72238096D01*
X99138095Y72142858D01*
X99185714Y72095239D01*
X99280952Y72047620D01*
X99471428Y72047620D01*
X99566666Y72095239D01*
X99614285Y72142858D01*
X99661904Y72238096D01*
X99661904Y72476191D01*
X99614285Y72571429D01*
X99566666Y72619048D01*
X99471428Y72666667D01*
X99280952Y72666667D01*
X99185714Y72619048D01*
X99138095Y72571429D01*
X99090476Y72476191D01*
X78804761Y54619048D02*
X78709523Y54666667D01*
X78661904Y54714286D01*
X78614285Y54809524D01*
X78614285Y54857143D01*
X78661904Y54952381D01*
X78709523Y55000000D01*
X78804761Y55047620D01*
X78995238Y55047620D01*
X79090476Y55000000D01*
X79138095Y54952381D01*
X79185714Y54857143D01*
X79185714Y54809524D01*
X79138095Y54714286D01*
X79090476Y54666667D01*
X78995238Y54619048D01*
X78804761Y54619048D01*
X78709523Y54571429D01*
X78661904Y54523810D01*
X78614285Y54428572D01*
X78614285Y54238096D01*
X78661904Y54142858D01*
X78709523Y54095239D01*
X78804761Y54047620D01*
X78995238Y54047620D01*
X79090476Y54095239D01*
X79138095Y54142858D01*
X79185714Y54238096D01*
X79185714Y54428572D01*
X79138095Y54523810D01*
X79090476Y54571429D01*
X78995238Y54619048D01*
X79185714Y72047620D02*
X78614285Y72047620D01*
X78900000Y72047620D02*
X78900000Y73047620D01*
X78804761Y72904762D01*
X78709523Y72809524D01*
X78614285Y72761905D01*
X98709523Y54047620D02*
X98900000Y54047620D01*
X98995238Y54095239D01*
X99042857Y54142858D01*
X99138095Y54285715D01*
X99185714Y54476191D01*
X99185714Y54857143D01*
X99138095Y54952381D01*
X99090476Y55000000D01*
X98995238Y55047620D01*
X98804761Y55047620D01*
X98709523Y55000000D01*
X98661904Y54952381D01*
X98614285Y54857143D01*
X98614285Y54619048D01*
X98661904Y54523810D01*
X98709523Y54476191D01*
X98804761Y54428572D01*
X98995238Y54428572D01*
X99090476Y54476191D01*
X99138095Y54523810D01*
X99185714Y54619048D01*
%TO.C,R5*%
X109053333Y7167620D02*
X108720000Y7643810D01*
X108481904Y7167620D02*
X108481904Y8167620D01*
X108862857Y8167620D01*
X108958095Y8120000D01*
X109005714Y8072381D01*
X109053333Y7977143D01*
X109053333Y7834286D01*
X109005714Y7739048D01*
X108958095Y7691429D01*
X108862857Y7643810D01*
X108481904Y7643810D01*
X109958095Y8167620D02*
X109481904Y8167620D01*
X109434285Y7691429D01*
X109481904Y7739048D01*
X109577142Y7786667D01*
X109815238Y7786667D01*
X109910476Y7739048D01*
X109958095Y7691429D01*
X110005714Y7596191D01*
X110005714Y7358096D01*
X109958095Y7262858D01*
X109910476Y7215239D01*
X109815238Y7167620D01*
X109577142Y7167620D01*
X109481904Y7215239D01*
X109434285Y7262858D01*
%TO.C,R17*%
X38617142Y17977620D02*
X38283809Y18453810D01*
X38045714Y17977620D02*
X38045714Y18977620D01*
X38426666Y18977620D01*
X38521904Y18930000D01*
X38569523Y18882381D01*
X38617142Y18787143D01*
X38617142Y18644286D01*
X38569523Y18549048D01*
X38521904Y18501429D01*
X38426666Y18453810D01*
X38045714Y18453810D01*
X39569523Y17977620D02*
X38998095Y17977620D01*
X39283809Y17977620D02*
X39283809Y18977620D01*
X39188571Y18834762D01*
X39093333Y18739524D01*
X38998095Y18691905D01*
X39902857Y18977620D02*
X40569523Y18977620D01*
X40140952Y17977620D01*
%TO.C,C14*%
X78097142Y34312858D02*
X78049523Y34265239D01*
X77906666Y34217620D01*
X77811428Y34217620D01*
X77668571Y34265239D01*
X77573333Y34360477D01*
X77525714Y34455715D01*
X77478095Y34646191D01*
X77478095Y34789048D01*
X77525714Y34979524D01*
X77573333Y35074762D01*
X77668571Y35170000D01*
X77811428Y35217620D01*
X77906666Y35217620D01*
X78049523Y35170000D01*
X78097142Y35122381D01*
X79049523Y34217620D02*
X78478095Y34217620D01*
X78763809Y34217620D02*
X78763809Y35217620D01*
X78668571Y35074762D01*
X78573333Y34979524D01*
X78478095Y34931905D01*
X79906666Y34884286D02*
X79906666Y34217620D01*
X79668571Y35265239D02*
X79430476Y34550953D01*
X80049523Y34550953D01*
%TO.C,J3*%
X136826666Y30817620D02*
X136826666Y30103334D01*
X136779047Y29960477D01*
X136683809Y29865239D01*
X136540952Y29817620D01*
X136445714Y29817620D01*
X137207619Y30817620D02*
X137826666Y30817620D01*
X137493333Y30436667D01*
X137636190Y30436667D01*
X137731428Y30389048D01*
X137779047Y30341429D01*
X137826666Y30246191D01*
X137826666Y30008096D01*
X137779047Y29912858D01*
X137731428Y29865239D01*
X137636190Y29817620D01*
X137350476Y29817620D01*
X137255238Y29865239D01*
X137207619Y29912858D01*
%TO.C,R6*%
X106513333Y2977620D02*
X106180000Y3453810D01*
X105941904Y2977620D02*
X105941904Y3977620D01*
X106322857Y3977620D01*
X106418095Y3930000D01*
X106465714Y3882381D01*
X106513333Y3787143D01*
X106513333Y3644286D01*
X106465714Y3549048D01*
X106418095Y3501429D01*
X106322857Y3453810D01*
X105941904Y3453810D01*
X107370476Y3977620D02*
X107180000Y3977620D01*
X107084761Y3930000D01*
X107037142Y3882381D01*
X106941904Y3739524D01*
X106894285Y3549048D01*
X106894285Y3168096D01*
X106941904Y3072858D01*
X106989523Y3025239D01*
X107084761Y2977620D01*
X107275238Y2977620D01*
X107370476Y3025239D01*
X107418095Y3072858D01*
X107465714Y3168096D01*
X107465714Y3406191D01*
X107418095Y3501429D01*
X107370476Y3549048D01*
X107275238Y3596667D01*
X107084761Y3596667D01*
X106989523Y3549048D01*
X106941904Y3501429D01*
X106894285Y3406191D01*
%TO.C,SW3*%
X69786666Y87715239D02*
X69929523Y87667620D01*
X70167619Y87667620D01*
X70262857Y87715239D01*
X70310476Y87762858D01*
X70358095Y87858096D01*
X70358095Y87953334D01*
X70310476Y88048572D01*
X70262857Y88096191D01*
X70167619Y88143810D01*
X69977142Y88191429D01*
X69881904Y88239048D01*
X69834285Y88286667D01*
X69786666Y88381905D01*
X69786666Y88477143D01*
X69834285Y88572381D01*
X69881904Y88620000D01*
X69977142Y88667620D01*
X70215238Y88667620D01*
X70358095Y88620000D01*
X70691428Y88667620D02*
X70929523Y87667620D01*
X71120000Y88381905D01*
X71310476Y87667620D01*
X71548571Y88667620D01*
X71834285Y88667620D02*
X72453333Y88667620D01*
X72120000Y88286667D01*
X72262857Y88286667D01*
X72358095Y88239048D01*
X72405714Y88191429D01*
X72453333Y88096191D01*
X72453333Y87858096D01*
X72405714Y87762858D01*
X72358095Y87715239D01*
X72262857Y87667620D01*
X71977142Y87667620D01*
X71881904Y87715239D01*
X71834285Y87762858D01*
%TO.C,R13*%
X95877142Y85017620D02*
X95543809Y85493810D01*
X95305714Y85017620D02*
X95305714Y86017620D01*
X95686666Y86017620D01*
X95781904Y85970000D01*
X95829523Y85922381D01*
X95877142Y85827143D01*
X95877142Y85684286D01*
X95829523Y85589048D01*
X95781904Y85541429D01*
X95686666Y85493810D01*
X95305714Y85493810D01*
X96829523Y85017620D02*
X96258095Y85017620D01*
X96543809Y85017620D02*
X96543809Y86017620D01*
X96448571Y85874762D01*
X96353333Y85779524D01*
X96258095Y85731905D01*
X97162857Y86017620D02*
X97781904Y86017620D01*
X97448571Y85636667D01*
X97591428Y85636667D01*
X97686666Y85589048D01*
X97734285Y85541429D01*
X97781904Y85446191D01*
X97781904Y85208096D01*
X97734285Y85112858D01*
X97686666Y85065239D01*
X97591428Y85017620D01*
X97305714Y85017620D01*
X97210476Y85065239D01*
X97162857Y85112858D01*
%TO.C,C3*%
X76033333Y27582858D02*
X75985714Y27535239D01*
X75842857Y27487620D01*
X75747619Y27487620D01*
X75604761Y27535239D01*
X75509523Y27630477D01*
X75461904Y27725715D01*
X75414285Y27916191D01*
X75414285Y28059048D01*
X75461904Y28249524D01*
X75509523Y28344762D01*
X75604761Y28440000D01*
X75747619Y28487620D01*
X75842857Y28487620D01*
X75985714Y28440000D01*
X76033333Y28392381D01*
X76366666Y28487620D02*
X76985714Y28487620D01*
X76652380Y28106667D01*
X76795238Y28106667D01*
X76890476Y28059048D01*
X76938095Y28011429D01*
X76985714Y27916191D01*
X76985714Y27678096D01*
X76938095Y27582858D01*
X76890476Y27535239D01*
X76795238Y27487620D01*
X76509523Y27487620D01*
X76414285Y27535239D01*
X76366666Y27582858D01*
%TO.C,R1*%
X45553333Y21517620D02*
X45220000Y21993810D01*
X44981904Y21517620D02*
X44981904Y22517620D01*
X45362857Y22517620D01*
X45458095Y22470000D01*
X45505714Y22422381D01*
X45553333Y22327143D01*
X45553333Y22184286D01*
X45505714Y22089048D01*
X45458095Y22041429D01*
X45362857Y21993810D01*
X44981904Y21993810D01*
X46505714Y21517620D02*
X45934285Y21517620D01*
X46220000Y21517620D02*
X46220000Y22517620D01*
X46124761Y22374762D01*
X46029523Y22279524D01*
X45934285Y22231905D01*
%TO.C,D2*%
X22121904Y76047620D02*
X22121904Y77047620D01*
X22360000Y77047620D01*
X22502857Y77000000D01*
X22598095Y76904762D01*
X22645714Y76809524D01*
X22693333Y76619048D01*
X22693333Y76476191D01*
X22645714Y76285715D01*
X22598095Y76190477D01*
X22502857Y76095239D01*
X22360000Y76047620D01*
X22121904Y76047620D01*
X23074285Y76952381D02*
X23121904Y77000000D01*
X23217142Y77047620D01*
X23455238Y77047620D01*
X23550476Y77000000D01*
X23598095Y76952381D01*
X23645714Y76857143D01*
X23645714Y76761905D01*
X23598095Y76619048D01*
X23026666Y76047620D01*
X23645714Y76047620D01*
X13145714Y72047620D02*
X12574285Y72047620D01*
X12860000Y72047620D02*
X12860000Y73047620D01*
X12764761Y72904762D01*
X12669523Y72809524D01*
X12574285Y72761905D01*
X32669523Y54047620D02*
X32860000Y54047620D01*
X32955238Y54095239D01*
X33002857Y54142858D01*
X33098095Y54285715D01*
X33145714Y54476191D01*
X33145714Y54857143D01*
X33098095Y54952381D01*
X33050476Y55000000D01*
X32955238Y55047620D01*
X32764761Y55047620D01*
X32669523Y55000000D01*
X32621904Y54952381D01*
X32574285Y54857143D01*
X32574285Y54619048D01*
X32621904Y54523810D01*
X32669523Y54476191D01*
X32764761Y54428572D01*
X32955238Y54428572D01*
X33050476Y54476191D01*
X33098095Y54523810D01*
X33145714Y54619048D01*
X12764761Y54619048D02*
X12669523Y54666667D01*
X12621904Y54714286D01*
X12574285Y54809524D01*
X12574285Y54857143D01*
X12621904Y54952381D01*
X12669523Y55000000D01*
X12764761Y55047620D01*
X12955238Y55047620D01*
X13050476Y55000000D01*
X13098095Y54952381D01*
X13145714Y54857143D01*
X13145714Y54809524D01*
X13098095Y54714286D01*
X13050476Y54666667D01*
X12955238Y54619048D01*
X12764761Y54619048D01*
X12669523Y54571429D01*
X12621904Y54523810D01*
X12574285Y54428572D01*
X12574285Y54238096D01*
X12621904Y54142858D01*
X12669523Y54095239D01*
X12764761Y54047620D01*
X12955238Y54047620D01*
X13050476Y54095239D01*
X13098095Y54142858D01*
X13145714Y54238096D01*
X13145714Y54428572D01*
X13098095Y54523810D01*
X13050476Y54571429D01*
X12955238Y54619048D01*
X32669523Y72047620D02*
X32098095Y72047620D01*
X32383809Y72047620D02*
X32383809Y73047620D01*
X32288571Y72904762D01*
X32193333Y72809524D01*
X32098095Y72761905D01*
X33526666Y73047620D02*
X33336190Y73047620D01*
X33240952Y73000000D01*
X33193333Y72952381D01*
X33098095Y72809524D01*
X33050476Y72619048D01*
X33050476Y72238096D01*
X33098095Y72142858D01*
X33145714Y72095239D01*
X33240952Y72047620D01*
X33431428Y72047620D01*
X33526666Y72095239D01*
X33574285Y72142858D01*
X33621904Y72238096D01*
X33621904Y72476191D01*
X33574285Y72571429D01*
X33526666Y72619048D01*
X33431428Y72666667D01*
X33240952Y72666667D01*
X33145714Y72619048D01*
X33098095Y72571429D01*
X33050476Y72476191D01*
%TO.C,H2*%
X135498095Y88527620D02*
X135498095Y89527620D01*
X135498095Y89051429D02*
X136069523Y89051429D01*
X136069523Y88527620D02*
X136069523Y89527620D01*
X136498095Y89432381D02*
X136545714Y89480000D01*
X136640952Y89527620D01*
X136879047Y89527620D01*
X136974285Y89480000D01*
X137021904Y89432381D01*
X137069523Y89337143D01*
X137069523Y89241905D01*
X137021904Y89099048D01*
X136450476Y88527620D01*
X137069523Y88527620D01*
%TO.C,C12*%
X83177142Y34312858D02*
X83129523Y34265239D01*
X82986666Y34217620D01*
X82891428Y34217620D01*
X82748571Y34265239D01*
X82653333Y34360477D01*
X82605714Y34455715D01*
X82558095Y34646191D01*
X82558095Y34789048D01*
X82605714Y34979524D01*
X82653333Y35074762D01*
X82748571Y35170000D01*
X82891428Y35217620D01*
X82986666Y35217620D01*
X83129523Y35170000D01*
X83177142Y35122381D01*
X84129523Y34217620D02*
X83558095Y34217620D01*
X83843809Y34217620D02*
X83843809Y35217620D01*
X83748571Y35074762D01*
X83653333Y34979524D01*
X83558095Y34931905D01*
X84510476Y35122381D02*
X84558095Y35170000D01*
X84653333Y35217620D01*
X84891428Y35217620D01*
X84986666Y35170000D01*
X85034285Y35122381D01*
X85081904Y35027143D01*
X85081904Y34931905D01*
X85034285Y34789048D01*
X84462857Y34217620D01*
X85081904Y34217620D01*
%TO.C,R15*%
X128897142Y85017620D02*
X128563809Y85493810D01*
X128325714Y85017620D02*
X128325714Y86017620D01*
X128706666Y86017620D01*
X128801904Y85970000D01*
X128849523Y85922381D01*
X128897142Y85827143D01*
X128897142Y85684286D01*
X128849523Y85589048D01*
X128801904Y85541429D01*
X128706666Y85493810D01*
X128325714Y85493810D01*
X129849523Y85017620D02*
X129278095Y85017620D01*
X129563809Y85017620D02*
X129563809Y86017620D01*
X129468571Y85874762D01*
X129373333Y85779524D01*
X129278095Y85731905D01*
X130754285Y86017620D02*
X130278095Y86017620D01*
X130230476Y85541429D01*
X130278095Y85589048D01*
X130373333Y85636667D01*
X130611428Y85636667D01*
X130706666Y85589048D01*
X130754285Y85541429D01*
X130801904Y85446191D01*
X130801904Y85208096D01*
X130754285Y85112858D01*
X130706666Y85065239D01*
X130611428Y85017620D01*
X130373333Y85017620D01*
X130278095Y85065239D01*
X130230476Y85112858D01*
%TO.C,C8*%
X19897142Y32613334D02*
X19944761Y32565715D01*
X19992380Y32422858D01*
X19992380Y32327620D01*
X19944761Y32184762D01*
X19849523Y32089524D01*
X19754285Y32041905D01*
X19563809Y31994286D01*
X19420952Y31994286D01*
X19230476Y32041905D01*
X19135238Y32089524D01*
X19040000Y32184762D01*
X18992380Y32327620D01*
X18992380Y32422858D01*
X19040000Y32565715D01*
X19087619Y32613334D01*
X19420952Y33184762D02*
X19373333Y33089524D01*
X19325714Y33041905D01*
X19230476Y32994286D01*
X19182857Y32994286D01*
X19087619Y33041905D01*
X19040000Y33089524D01*
X18992380Y33184762D01*
X18992380Y33375239D01*
X19040000Y33470477D01*
X19087619Y33518096D01*
X19182857Y33565715D01*
X19230476Y33565715D01*
X19325714Y33518096D01*
X19373333Y33470477D01*
X19420952Y33375239D01*
X19420952Y33184762D01*
X19468571Y33089524D01*
X19516190Y33041905D01*
X19611428Y32994286D01*
X19801904Y32994286D01*
X19897142Y33041905D01*
X19944761Y33089524D01*
X19992380Y33184762D01*
X19992380Y33375239D01*
X19944761Y33470477D01*
X19897142Y33518096D01*
X19801904Y33565715D01*
X19611428Y33565715D01*
X19516190Y33518096D01*
X19468571Y33470477D01*
X19420952Y33375239D01*
%TO.C,R14*%
X122547142Y86267620D02*
X122213809Y86743810D01*
X121975714Y86267620D02*
X121975714Y87267620D01*
X122356666Y87267620D01*
X122451904Y87220000D01*
X122499523Y87172381D01*
X122547142Y87077143D01*
X122547142Y86934286D01*
X122499523Y86839048D01*
X122451904Y86791429D01*
X122356666Y86743810D01*
X121975714Y86743810D01*
X123499523Y86267620D02*
X122928095Y86267620D01*
X123213809Y86267620D02*
X123213809Y87267620D01*
X123118571Y87124762D01*
X123023333Y87029524D01*
X122928095Y86981905D01*
X124356666Y86934286D02*
X124356666Y86267620D01*
X124118571Y87315239D02*
X123880476Y86600953D01*
X124499523Y86600953D01*
%TO.C,H3*%
X5498095Y8527620D02*
X5498095Y9527620D01*
X5498095Y9051429D02*
X6069523Y9051429D01*
X6069523Y8527620D02*
X6069523Y9527620D01*
X6450476Y9527620D02*
X7069523Y9527620D01*
X6736190Y9146667D01*
X6879047Y9146667D01*
X6974285Y9099048D01*
X7021904Y9051429D01*
X7069523Y8956191D01*
X7069523Y8718096D01*
X7021904Y8622858D01*
X6974285Y8575239D01*
X6879047Y8527620D01*
X6593333Y8527620D01*
X6498095Y8575239D01*
X6450476Y8622858D01*
%TO.C,R11*%
X29837142Y85017620D02*
X29503809Y85493810D01*
X29265714Y85017620D02*
X29265714Y86017620D01*
X29646666Y86017620D01*
X29741904Y85970000D01*
X29789523Y85922381D01*
X29837142Y85827143D01*
X29837142Y85684286D01*
X29789523Y85589048D01*
X29741904Y85541429D01*
X29646666Y85493810D01*
X29265714Y85493810D01*
X30789523Y85017620D02*
X30218095Y85017620D01*
X30503809Y85017620D02*
X30503809Y86017620D01*
X30408571Y85874762D01*
X30313333Y85779524D01*
X30218095Y85731905D01*
X31741904Y85017620D02*
X31170476Y85017620D01*
X31456190Y85017620D02*
X31456190Y86017620D01*
X31360952Y85874762D01*
X31265714Y85779524D01*
X31170476Y85731905D01*
%TO.C,U2*%
X85602380Y19548096D02*
X86411904Y19548096D01*
X86507142Y19595715D01*
X86554761Y19643334D01*
X86602380Y19738572D01*
X86602380Y19929048D01*
X86554761Y20024286D01*
X86507142Y20071905D01*
X86411904Y20119524D01*
X85602380Y20119524D01*
X85697619Y20548096D02*
X85650000Y20595715D01*
X85602380Y20690953D01*
X85602380Y20929048D01*
X85650000Y21024286D01*
X85697619Y21071905D01*
X85792857Y21119524D01*
X85888095Y21119524D01*
X86030952Y21071905D01*
X86602380Y20500477D01*
X86602380Y21119524D01*
%TO.C,Y2*%
X63423809Y27963810D02*
X63423809Y27487620D01*
X63090476Y28487620D02*
X63423809Y27963810D01*
X63757142Y28487620D01*
X64042857Y28392381D02*
X64090476Y28440000D01*
X64185714Y28487620D01*
X64423809Y28487620D01*
X64519047Y28440000D01*
X64566666Y28392381D01*
X64614285Y28297143D01*
X64614285Y28201905D01*
X64566666Y28059048D01*
X63995238Y27487620D01*
X64614285Y27487620D01*
%TO.C,SW2*%
X36766666Y87715239D02*
X36909523Y87667620D01*
X37147619Y87667620D01*
X37242857Y87715239D01*
X37290476Y87762858D01*
X37338095Y87858096D01*
X37338095Y87953334D01*
X37290476Y88048572D01*
X37242857Y88096191D01*
X37147619Y88143810D01*
X36957142Y88191429D01*
X36861904Y88239048D01*
X36814285Y88286667D01*
X36766666Y88381905D01*
X36766666Y88477143D01*
X36814285Y88572381D01*
X36861904Y88620000D01*
X36957142Y88667620D01*
X37195238Y88667620D01*
X37338095Y88620000D01*
X37671428Y88667620D02*
X37909523Y87667620D01*
X38100000Y88381905D01*
X38290476Y87667620D01*
X38528571Y88667620D01*
X38861904Y88572381D02*
X38909523Y88620000D01*
X39004761Y88667620D01*
X39242857Y88667620D01*
X39338095Y88620000D01*
X39385714Y88572381D01*
X39433333Y88477143D01*
X39433333Y88381905D01*
X39385714Y88239048D01*
X38814285Y87667620D01*
X39433333Y87667620D01*
%TO.C,R10*%
X55237142Y30917620D02*
X54903809Y31393810D01*
X54665714Y30917620D02*
X54665714Y31917620D01*
X55046666Y31917620D01*
X55141904Y31870000D01*
X55189523Y31822381D01*
X55237142Y31727143D01*
X55237142Y31584286D01*
X55189523Y31489048D01*
X55141904Y31441429D01*
X55046666Y31393810D01*
X54665714Y31393810D01*
X56189523Y30917620D02*
X55618095Y30917620D01*
X55903809Y30917620D02*
X55903809Y31917620D01*
X55808571Y31774762D01*
X55713333Y31679524D01*
X55618095Y31631905D01*
X56808571Y31917620D02*
X56903809Y31917620D01*
X56999047Y31870000D01*
X57046666Y31822381D01*
X57094285Y31727143D01*
X57141904Y31536667D01*
X57141904Y31298572D01*
X57094285Y31108096D01*
X57046666Y31012858D01*
X56999047Y30965239D01*
X56903809Y30917620D01*
X56808571Y30917620D01*
X56713333Y30965239D01*
X56665714Y31012858D01*
X56618095Y31108096D01*
X56570476Y31298572D01*
X56570476Y31536667D01*
X56618095Y31727143D01*
X56665714Y31822381D01*
X56713333Y31870000D01*
X56808571Y31917620D01*
%TO.C,R4*%
X27772380Y24613334D02*
X27296190Y24280000D01*
X27772380Y24041905D02*
X26772380Y24041905D01*
X26772380Y24422858D01*
X26820000Y24518096D01*
X26867619Y24565715D01*
X26962857Y24613334D01*
X27105714Y24613334D01*
X27200952Y24565715D01*
X27248571Y24518096D01*
X27296190Y24422858D01*
X27296190Y24041905D01*
X27105714Y25470477D02*
X27772380Y25470477D01*
X26724761Y25232381D02*
X27439047Y24994286D01*
X27439047Y25613334D01*
%TO.C,H1*%
X5498095Y88527620D02*
X5498095Y89527620D01*
X5498095Y89051429D02*
X6069523Y89051429D01*
X6069523Y88527620D02*
X6069523Y89527620D01*
X7069523Y88527620D02*
X6498095Y88527620D01*
X6783809Y88527620D02*
X6783809Y89527620D01*
X6688571Y89384762D01*
X6593333Y89289524D01*
X6498095Y89241905D01*
%TO.C,SW4*%
X102806666Y87715239D02*
X102949523Y87667620D01*
X103187619Y87667620D01*
X103282857Y87715239D01*
X103330476Y87762858D01*
X103378095Y87858096D01*
X103378095Y87953334D01*
X103330476Y88048572D01*
X103282857Y88096191D01*
X103187619Y88143810D01*
X102997142Y88191429D01*
X102901904Y88239048D01*
X102854285Y88286667D01*
X102806666Y88381905D01*
X102806666Y88477143D01*
X102854285Y88572381D01*
X102901904Y88620000D01*
X102997142Y88667620D01*
X103235238Y88667620D01*
X103378095Y88620000D01*
X103711428Y88667620D02*
X103949523Y87667620D01*
X104140000Y88381905D01*
X104330476Y87667620D01*
X104568571Y88667620D01*
X105378095Y88334286D02*
X105378095Y87667620D01*
X105140000Y88715239D02*
X104901904Y88000953D01*
X105520952Y88000953D01*
%TO.C,D5*%
X55141904Y76047620D02*
X55141904Y77047620D01*
X55380000Y77047620D01*
X55522857Y77000000D01*
X55618095Y76904762D01*
X55665714Y76809524D01*
X55713333Y76619048D01*
X55713333Y76476191D01*
X55665714Y76285715D01*
X55618095Y76190477D01*
X55522857Y76095239D01*
X55380000Y76047620D01*
X55141904Y76047620D01*
X56618095Y77047620D02*
X56141904Y77047620D01*
X56094285Y76571429D01*
X56141904Y76619048D01*
X56237142Y76666667D01*
X56475238Y76666667D01*
X56570476Y76619048D01*
X56618095Y76571429D01*
X56665714Y76476191D01*
X56665714Y76238096D01*
X56618095Y76142858D01*
X56570476Y76095239D01*
X56475238Y76047620D01*
X56237142Y76047620D01*
X56141904Y76095239D01*
X56094285Y76142858D01*
X65689523Y54047620D02*
X65880000Y54047620D01*
X65975238Y54095239D01*
X66022857Y54142858D01*
X66118095Y54285715D01*
X66165714Y54476191D01*
X66165714Y54857143D01*
X66118095Y54952381D01*
X66070476Y55000000D01*
X65975238Y55047620D01*
X65784761Y55047620D01*
X65689523Y55000000D01*
X65641904Y54952381D01*
X65594285Y54857143D01*
X65594285Y54619048D01*
X65641904Y54523810D01*
X65689523Y54476191D01*
X65784761Y54428572D01*
X65975238Y54428572D01*
X66070476Y54476191D01*
X66118095Y54523810D01*
X66165714Y54619048D01*
X65689523Y72047620D02*
X65118095Y72047620D01*
X65403809Y72047620D02*
X65403809Y73047620D01*
X65308571Y72904762D01*
X65213333Y72809524D01*
X65118095Y72761905D01*
X66546666Y73047620D02*
X66356190Y73047620D01*
X66260952Y73000000D01*
X66213333Y72952381D01*
X66118095Y72809524D01*
X66070476Y72619048D01*
X66070476Y72238096D01*
X66118095Y72142858D01*
X66165714Y72095239D01*
X66260952Y72047620D01*
X66451428Y72047620D01*
X66546666Y72095239D01*
X66594285Y72142858D01*
X66641904Y72238096D01*
X66641904Y72476191D01*
X66594285Y72571429D01*
X66546666Y72619048D01*
X66451428Y72666667D01*
X66260952Y72666667D01*
X66165714Y72619048D01*
X66118095Y72571429D01*
X66070476Y72476191D01*
X45784761Y54619048D02*
X45689523Y54666667D01*
X45641904Y54714286D01*
X45594285Y54809524D01*
X45594285Y54857143D01*
X45641904Y54952381D01*
X45689523Y55000000D01*
X45784761Y55047620D01*
X45975238Y55047620D01*
X46070476Y55000000D01*
X46118095Y54952381D01*
X46165714Y54857143D01*
X46165714Y54809524D01*
X46118095Y54714286D01*
X46070476Y54666667D01*
X45975238Y54619048D01*
X45784761Y54619048D01*
X45689523Y54571429D01*
X45641904Y54523810D01*
X45594285Y54428572D01*
X45594285Y54238096D01*
X45641904Y54142858D01*
X45689523Y54095239D01*
X45784761Y54047620D01*
X45975238Y54047620D01*
X46070476Y54095239D01*
X46118095Y54142858D01*
X46165714Y54238096D01*
X46165714Y54428572D01*
X46118095Y54523810D01*
X46070476Y54571429D01*
X45975238Y54619048D01*
X46165714Y72047620D02*
X45594285Y72047620D01*
X45880000Y72047620D02*
X45880000Y73047620D01*
X45784761Y72904762D01*
X45689523Y72809524D01*
X45594285Y72761905D01*
%TO.C,J1*%
X19986666Y20232620D02*
X19986666Y19518334D01*
X19939047Y19375477D01*
X19843809Y19280239D01*
X19700952Y19232620D01*
X19605714Y19232620D01*
X20986666Y19232620D02*
X20415238Y19232620D01*
X20700952Y19232620D02*
X20700952Y20232620D01*
X20605714Y20089762D01*
X20510476Y19994524D01*
X20415238Y19946905D01*
%TO.C,U4*%
X38617380Y39868096D02*
X39426904Y39868096D01*
X39522142Y39915715D01*
X39569761Y39963334D01*
X39617380Y40058572D01*
X39617380Y40249048D01*
X39569761Y40344286D01*
X39522142Y40391905D01*
X39426904Y40439524D01*
X38617380Y40439524D01*
X38950714Y41344286D02*
X39617380Y41344286D01*
X38569761Y41106191D02*
X39284047Y40868096D01*
X39284047Y41487143D01*
%TO.C,U6*%
X104657380Y39868096D02*
X105466904Y39868096D01*
X105562142Y39915715D01*
X105609761Y39963334D01*
X105657380Y40058572D01*
X105657380Y40249048D01*
X105609761Y40344286D01*
X105562142Y40391905D01*
X105466904Y40439524D01*
X104657380Y40439524D01*
X104657380Y41344286D02*
X104657380Y41153810D01*
X104705000Y41058572D01*
X104752619Y41010953D01*
X104895476Y40915715D01*
X105085952Y40868096D01*
X105466904Y40868096D01*
X105562142Y40915715D01*
X105609761Y40963334D01*
X105657380Y41058572D01*
X105657380Y41249048D01*
X105609761Y41344286D01*
X105562142Y41391905D01*
X105466904Y41439524D01*
X105228809Y41439524D01*
X105133571Y41391905D01*
X105085952Y41344286D01*
X105038333Y41249048D01*
X105038333Y41058572D01*
X105085952Y40963334D01*
X105133571Y40915715D01*
X105228809Y40868096D01*
%TO.C,TP2*%
X95258095Y30485620D02*
X95829523Y30485620D01*
X95543809Y29485620D02*
X95543809Y30485620D01*
X96162857Y29485620D02*
X96162857Y30485620D01*
X96543809Y30485620D01*
X96639047Y30438000D01*
X96686666Y30390381D01*
X96734285Y30295143D01*
X96734285Y30152286D01*
X96686666Y30057048D01*
X96639047Y30009429D01*
X96543809Y29961810D01*
X96162857Y29961810D01*
X97115238Y30390381D02*
X97162857Y30438000D01*
X97258095Y30485620D01*
X97496190Y30485620D01*
X97591428Y30438000D01*
X97639047Y30390381D01*
X97686666Y30295143D01*
X97686666Y30199905D01*
X97639047Y30057048D01*
X97067619Y29485620D01*
X97686666Y29485620D01*
%TO.C,C13*%
X50157142Y34312858D02*
X50109523Y34265239D01*
X49966666Y34217620D01*
X49871428Y34217620D01*
X49728571Y34265239D01*
X49633333Y34360477D01*
X49585714Y34455715D01*
X49538095Y34646191D01*
X49538095Y34789048D01*
X49585714Y34979524D01*
X49633333Y35074762D01*
X49728571Y35170000D01*
X49871428Y35217620D01*
X49966666Y35217620D01*
X50109523Y35170000D01*
X50157142Y35122381D01*
X51109523Y34217620D02*
X50538095Y34217620D01*
X50823809Y34217620D02*
X50823809Y35217620D01*
X50728571Y35074762D01*
X50633333Y34979524D01*
X50538095Y34931905D01*
X51442857Y35217620D02*
X52061904Y35217620D01*
X51728571Y34836667D01*
X51871428Y34836667D01*
X51966666Y34789048D01*
X52014285Y34741429D01*
X52061904Y34646191D01*
X52061904Y34408096D01*
X52014285Y34312858D01*
X51966666Y34265239D01*
X51871428Y34217620D01*
X51585714Y34217620D01*
X51490476Y34265239D01*
X51442857Y34312858D01*
%TO.C,U1*%
X44958095Y18327620D02*
X44958095Y17518096D01*
X45005714Y17422858D01*
X45053333Y17375239D01*
X45148571Y17327620D01*
X45339047Y17327620D01*
X45434285Y17375239D01*
X45481904Y17422858D01*
X45529523Y17518096D01*
X45529523Y18327620D01*
X46529523Y17327620D02*
X45958095Y17327620D01*
X46243809Y17327620D02*
X46243809Y18327620D01*
X46148571Y18184762D01*
X46053333Y18089524D01*
X45958095Y18041905D01*
%TO.C,R7*%
X24763333Y34217620D02*
X24430000Y34693810D01*
X24191904Y34217620D02*
X24191904Y35217620D01*
X24572857Y35217620D01*
X24668095Y35170000D01*
X24715714Y35122381D01*
X24763333Y35027143D01*
X24763333Y34884286D01*
X24715714Y34789048D01*
X24668095Y34741429D01*
X24572857Y34693810D01*
X24191904Y34693810D01*
X25096666Y35217620D02*
X25763333Y35217620D01*
X25334761Y34217620D01*
%TO.C,R9*%
X88733333Y28377620D02*
X88400000Y28853810D01*
X88161904Y28377620D02*
X88161904Y29377620D01*
X88542857Y29377620D01*
X88638095Y29330000D01*
X88685714Y29282381D01*
X88733333Y29187143D01*
X88733333Y29044286D01*
X88685714Y28949048D01*
X88638095Y28901429D01*
X88542857Y28853810D01*
X88161904Y28853810D01*
X89209523Y28377620D02*
X89400000Y28377620D01*
X89495238Y28425239D01*
X89542857Y28472858D01*
X89638095Y28615715D01*
X89685714Y28806191D01*
X89685714Y29187143D01*
X89638095Y29282381D01*
X89590476Y29330000D01*
X89495238Y29377620D01*
X89304761Y29377620D01*
X89209523Y29330000D01*
X89161904Y29282381D01*
X89114285Y29187143D01*
X89114285Y28949048D01*
X89161904Y28853810D01*
X89209523Y28806191D01*
X89304761Y28758572D01*
X89495238Y28758572D01*
X89590476Y28806191D01*
X89638095Y28853810D01*
X89685714Y28949048D01*
%TO.C,C2*%
X91273333Y21612858D02*
X91225714Y21565239D01*
X91082857Y21517620D01*
X90987619Y21517620D01*
X90844761Y21565239D01*
X90749523Y21660477D01*
X90701904Y21755715D01*
X90654285Y21946191D01*
X90654285Y22089048D01*
X90701904Y22279524D01*
X90749523Y22374762D01*
X90844761Y22470000D01*
X90987619Y22517620D01*
X91082857Y22517620D01*
X91225714Y22470000D01*
X91273333Y22422381D01*
X91654285Y22422381D02*
X91701904Y22470000D01*
X91797142Y22517620D01*
X92035238Y22517620D01*
X92130476Y22470000D01*
X92178095Y22422381D01*
X92225714Y22327143D01*
X92225714Y22231905D01*
X92178095Y22089048D01*
X91606666Y21517620D01*
X92225714Y21517620D01*
%TO.C,BT1*%
X105730599Y22351412D02*
X105873456Y22303793D01*
X105921075Y22256174D01*
X105968694Y22160936D01*
X105968694Y22018079D01*
X105921075Y21922841D01*
X105873456Y21875222D01*
X105778218Y21827603D01*
X105397266Y21827603D01*
X105397266Y22827603D01*
X105730599Y22827603D01*
X105825837Y22779983D01*
X105873456Y22732364D01*
X105921075Y22637126D01*
X105921075Y22541888D01*
X105873456Y22446650D01*
X105825837Y22399031D01*
X105730599Y22351412D01*
X105397266Y22351412D01*
X106254409Y22827603D02*
X106825837Y22827603D01*
X106540123Y21827603D02*
X106540123Y22827603D01*
X107682980Y21827603D02*
X107111552Y21827603D01*
X107397266Y21827603D02*
X107397266Y22827603D01*
X107302028Y22684745D01*
X107206790Y22589507D01*
X107111552Y22541888D01*
X109944885Y17672841D02*
X111087742Y17672841D01*
X110516314Y17101412D02*
X110516314Y18244269D01*
%TO.C,C1*%
X76033333Y9802858D02*
X75985714Y9755239D01*
X75842857Y9707620D01*
X75747619Y9707620D01*
X75604761Y9755239D01*
X75509523Y9850477D01*
X75461904Y9945715D01*
X75414285Y10136191D01*
X75414285Y10279048D01*
X75461904Y10469524D01*
X75509523Y10564762D01*
X75604761Y10660000D01*
X75747619Y10707620D01*
X75842857Y10707620D01*
X75985714Y10660000D01*
X76033333Y10612381D01*
X76985714Y9707620D02*
X76414285Y9707620D01*
X76700000Y9707620D02*
X76700000Y10707620D01*
X76604761Y10564762D01*
X76509523Y10469524D01*
X76414285Y10421905D01*
%TO.C,D6*%
X6881904Y15677620D02*
X6881904Y16677620D01*
X7120000Y16677620D01*
X7262857Y16630000D01*
X7358095Y16534762D01*
X7405714Y16439524D01*
X7453333Y16249048D01*
X7453333Y16106191D01*
X7405714Y15915715D01*
X7358095Y15820477D01*
X7262857Y15725239D01*
X7120000Y15677620D01*
X6881904Y15677620D01*
X8310476Y16677620D02*
X8120000Y16677620D01*
X8024761Y16630000D01*
X7977142Y16582381D01*
X7881904Y16439524D01*
X7834285Y16249048D01*
X7834285Y15868096D01*
X7881904Y15772858D01*
X7929523Y15725239D01*
X8024761Y15677620D01*
X8215238Y15677620D01*
X8310476Y15725239D01*
X8358095Y15772858D01*
X8405714Y15868096D01*
X8405714Y16106191D01*
X8358095Y16201429D01*
X8310476Y16249048D01*
X8215238Y16296667D01*
X8024761Y16296667D01*
X7929523Y16249048D01*
X7881904Y16201429D01*
X7834285Y16106191D01*
%TO.C,C11*%
X111117142Y31772858D02*
X111069523Y31725239D01*
X110926666Y31677620D01*
X110831428Y31677620D01*
X110688571Y31725239D01*
X110593333Y31820477D01*
X110545714Y31915715D01*
X110498095Y32106191D01*
X110498095Y32249048D01*
X110545714Y32439524D01*
X110593333Y32534762D01*
X110688571Y32630000D01*
X110831428Y32677620D01*
X110926666Y32677620D01*
X111069523Y32630000D01*
X111117142Y32582381D01*
X112069523Y31677620D02*
X111498095Y31677620D01*
X111783809Y31677620D02*
X111783809Y32677620D01*
X111688571Y32534762D01*
X111593333Y32439524D01*
X111498095Y32391905D01*
X113021904Y31677620D02*
X112450476Y31677620D01*
X112736190Y31677620D02*
X112736190Y32677620D01*
X112640952Y32534762D01*
X112545714Y32439524D01*
X112450476Y32391905D01*
%TO.C,U7*%
X71637380Y39868096D02*
X72446904Y39868096D01*
X72542142Y39915715D01*
X72589761Y39963334D01*
X72637380Y40058572D01*
X72637380Y40249048D01*
X72589761Y40344286D01*
X72542142Y40391905D01*
X72446904Y40439524D01*
X71637380Y40439524D01*
X71637380Y40820477D02*
X71637380Y41487143D01*
X72637380Y41058572D01*
%TO.C,C15*%
X45077142Y34312858D02*
X45029523Y34265239D01*
X44886666Y34217620D01*
X44791428Y34217620D01*
X44648571Y34265239D01*
X44553333Y34360477D01*
X44505714Y34455715D01*
X44458095Y34646191D01*
X44458095Y34789048D01*
X44505714Y34979524D01*
X44553333Y35074762D01*
X44648571Y35170000D01*
X44791428Y35217620D01*
X44886666Y35217620D01*
X45029523Y35170000D01*
X45077142Y35122381D01*
X46029523Y34217620D02*
X45458095Y34217620D01*
X45743809Y34217620D02*
X45743809Y35217620D01*
X45648571Y35074762D01*
X45553333Y34979524D01*
X45458095Y34931905D01*
X46934285Y35217620D02*
X46458095Y35217620D01*
X46410476Y34741429D01*
X46458095Y34789048D01*
X46553333Y34836667D01*
X46791428Y34836667D01*
X46886666Y34789048D01*
X46934285Y34741429D01*
X46981904Y34646191D01*
X46981904Y34408096D01*
X46934285Y34312858D01*
X46886666Y34265239D01*
X46791428Y34217620D01*
X46553333Y34217620D01*
X46458095Y34265239D01*
X46410476Y34312858D01*
%TO.C,C7*%
X54587142Y7453334D02*
X54634761Y7405715D01*
X54682380Y7262858D01*
X54682380Y7167620D01*
X54634761Y7024762D01*
X54539523Y6929524D01*
X54444285Y6881905D01*
X54253809Y6834286D01*
X54110952Y6834286D01*
X53920476Y6881905D01*
X53825238Y6929524D01*
X53730000Y7024762D01*
X53682380Y7167620D01*
X53682380Y7262858D01*
X53730000Y7405715D01*
X53777619Y7453334D01*
X53682380Y7786667D02*
X53682380Y8453334D01*
X54682380Y8024762D01*
%TO.C,C4*%
X52343333Y25932858D02*
X52295714Y25885239D01*
X52152857Y25837620D01*
X52057619Y25837620D01*
X51914761Y25885239D01*
X51819523Y25980477D01*
X51771904Y26075715D01*
X51724285Y26266191D01*
X51724285Y26409048D01*
X51771904Y26599524D01*
X51819523Y26694762D01*
X51914761Y26790000D01*
X52057619Y26837620D01*
X52152857Y26837620D01*
X52295714Y26790000D01*
X52343333Y26742381D01*
X53200476Y26504286D02*
X53200476Y25837620D01*
X52962380Y26885239D02*
X52724285Y26170953D01*
X53343333Y26170953D01*
%TO.C,R8*%
X126833333Y34217620D02*
X126500000Y34693810D01*
X126261904Y34217620D02*
X126261904Y35217620D01*
X126642857Y35217620D01*
X126738095Y35170000D01*
X126785714Y35122381D01*
X126833333Y35027143D01*
X126833333Y34884286D01*
X126785714Y34789048D01*
X126738095Y34741429D01*
X126642857Y34693810D01*
X126261904Y34693810D01*
X127404761Y34789048D02*
X127309523Y34836667D01*
X127261904Y34884286D01*
X127214285Y34979524D01*
X127214285Y35027143D01*
X127261904Y35122381D01*
X127309523Y35170000D01*
X127404761Y35217620D01*
X127595238Y35217620D01*
X127690476Y35170000D01*
X127738095Y35122381D01*
X127785714Y35027143D01*
X127785714Y34979524D01*
X127738095Y34884286D01*
X127690476Y34836667D01*
X127595238Y34789048D01*
X127404761Y34789048D01*
X127309523Y34741429D01*
X127261904Y34693810D01*
X127214285Y34598572D01*
X127214285Y34408096D01*
X127261904Y34312858D01*
X127309523Y34265239D01*
X127404761Y34217620D01*
X127595238Y34217620D01*
X127690476Y34265239D01*
X127738095Y34312858D01*
X127785714Y34408096D01*
X127785714Y34598572D01*
X127738095Y34693810D01*
X127690476Y34741429D01*
X127595238Y34789048D01*
%TO.C,D1*%
X100861904Y20757620D02*
X100861904Y21757620D01*
X101100000Y21757620D01*
X101242857Y21710000D01*
X101338095Y21614762D01*
X101385714Y21519524D01*
X101433333Y21329048D01*
X101433333Y21186191D01*
X101385714Y20995715D01*
X101338095Y20900477D01*
X101242857Y20805239D01*
X101100000Y20757620D01*
X100861904Y20757620D01*
X102385714Y20757620D02*
X101814285Y20757620D01*
X102100000Y20757620D02*
X102100000Y21757620D01*
X102004761Y21614762D01*
X101909523Y21519524D01*
X101814285Y21471905D01*
%TO.C,R2*%
X93813333Y21517620D02*
X93480000Y21993810D01*
X93241904Y21517620D02*
X93241904Y22517620D01*
X93622857Y22517620D01*
X93718095Y22470000D01*
X93765714Y22422381D01*
X93813333Y22327143D01*
X93813333Y22184286D01*
X93765714Y22089048D01*
X93718095Y22041429D01*
X93622857Y21993810D01*
X93241904Y21993810D01*
X94194285Y22422381D02*
X94241904Y22470000D01*
X94337142Y22517620D01*
X94575238Y22517620D01*
X94670476Y22470000D01*
X94718095Y22422381D01*
X94765714Y22327143D01*
X94765714Y22231905D01*
X94718095Y22089048D01*
X94146666Y21517620D01*
X94765714Y21517620D01*
%TO.C,C5*%
X7087142Y22693334D02*
X7134761Y22645715D01*
X7182380Y22502858D01*
X7182380Y22407620D01*
X7134761Y22264762D01*
X7039523Y22169524D01*
X6944285Y22121905D01*
X6753809Y22074286D01*
X6610952Y22074286D01*
X6420476Y22121905D01*
X6325238Y22169524D01*
X6230000Y22264762D01*
X6182380Y22407620D01*
X6182380Y22502858D01*
X6230000Y22645715D01*
X6277619Y22693334D01*
X6182380Y23598096D02*
X6182380Y23121905D01*
X6658571Y23074286D01*
X6610952Y23121905D01*
X6563333Y23217143D01*
X6563333Y23455239D01*
X6610952Y23550477D01*
X6658571Y23598096D01*
X6753809Y23645715D01*
X6991904Y23645715D01*
X7087142Y23598096D01*
X7134761Y23550477D01*
X7182380Y23455239D01*
X7182380Y23217143D01*
X7134761Y23121905D01*
X7087142Y23074286D01*
%TO.C,R12*%
X62857142Y85017620D02*
X62523809Y85493810D01*
X62285714Y85017620D02*
X62285714Y86017620D01*
X62666666Y86017620D01*
X62761904Y85970000D01*
X62809523Y85922381D01*
X62857142Y85827143D01*
X62857142Y85684286D01*
X62809523Y85589048D01*
X62761904Y85541429D01*
X62666666Y85493810D01*
X62285714Y85493810D01*
X63809523Y85017620D02*
X63238095Y85017620D01*
X63523809Y85017620D02*
X63523809Y86017620D01*
X63428571Y85874762D01*
X63333333Y85779524D01*
X63238095Y85731905D01*
X64190476Y85922381D02*
X64238095Y85970000D01*
X64333333Y86017620D01*
X64571428Y86017620D01*
X64666666Y85970000D01*
X64714285Y85922381D01*
X64761904Y85827143D01*
X64761904Y85731905D01*
X64714285Y85589048D01*
X64142857Y85017620D01*
X64761904Y85017620D01*
%TO.C,J4*%
X13636666Y20657620D02*
X13636666Y19943334D01*
X13589047Y19800477D01*
X13493809Y19705239D01*
X13350952Y19657620D01*
X13255714Y19657620D01*
X14541428Y20324286D02*
X14541428Y19657620D01*
X14303333Y20705239D02*
X14065238Y19990953D01*
X14684285Y19990953D01*
%TO.C,C10*%
X116197142Y34312858D02*
X116149523Y34265239D01*
X116006666Y34217620D01*
X115911428Y34217620D01*
X115768571Y34265239D01*
X115673333Y34360477D01*
X115625714Y34455715D01*
X115578095Y34646191D01*
X115578095Y34789048D01*
X115625714Y34979524D01*
X115673333Y35074762D01*
X115768571Y35170000D01*
X115911428Y35217620D01*
X116006666Y35217620D01*
X116149523Y35170000D01*
X116197142Y35122381D01*
X117149523Y34217620D02*
X116578095Y34217620D01*
X116863809Y34217620D02*
X116863809Y35217620D01*
X116768571Y35074762D01*
X116673333Y34979524D01*
X116578095Y34931905D01*
X117768571Y35217620D02*
X117863809Y35217620D01*
X117959047Y35170000D01*
X118006666Y35122381D01*
X118054285Y35027143D01*
X118101904Y34836667D01*
X118101904Y34598572D01*
X118054285Y34408096D01*
X118006666Y34312858D01*
X117959047Y34265239D01*
X117863809Y34217620D01*
X117768571Y34217620D01*
X117673333Y34265239D01*
X117625714Y34312858D01*
X117578095Y34408096D01*
X117530476Y34598572D01*
X117530476Y34836667D01*
X117578095Y35027143D01*
X117625714Y35122381D01*
X117673333Y35170000D01*
X117768571Y35217620D01*
%TO.C,D3*%
X121181904Y76047620D02*
X121181904Y77047620D01*
X121420000Y77047620D01*
X121562857Y77000000D01*
X121658095Y76904762D01*
X121705714Y76809524D01*
X121753333Y76619048D01*
X121753333Y76476191D01*
X121705714Y76285715D01*
X121658095Y76190477D01*
X121562857Y76095239D01*
X121420000Y76047620D01*
X121181904Y76047620D01*
X122086666Y77047620D02*
X122705714Y77047620D01*
X122372380Y76666667D01*
X122515238Y76666667D01*
X122610476Y76619048D01*
X122658095Y76571429D01*
X122705714Y76476191D01*
X122705714Y76238096D01*
X122658095Y76142858D01*
X122610476Y76095239D01*
X122515238Y76047620D01*
X122229523Y76047620D01*
X122134285Y76095239D01*
X122086666Y76142858D01*
X112205714Y72047620D02*
X111634285Y72047620D01*
X111920000Y72047620D02*
X111920000Y73047620D01*
X111824761Y72904762D01*
X111729523Y72809524D01*
X111634285Y72761905D01*
X111824761Y54619048D02*
X111729523Y54666667D01*
X111681904Y54714286D01*
X111634285Y54809524D01*
X111634285Y54857143D01*
X111681904Y54952381D01*
X111729523Y55000000D01*
X111824761Y55047620D01*
X112015238Y55047620D01*
X112110476Y55000000D01*
X112158095Y54952381D01*
X112205714Y54857143D01*
X112205714Y54809524D01*
X112158095Y54714286D01*
X112110476Y54666667D01*
X112015238Y54619048D01*
X111824761Y54619048D01*
X111729523Y54571429D01*
X111681904Y54523810D01*
X111634285Y54428572D01*
X111634285Y54238096D01*
X111681904Y54142858D01*
X111729523Y54095239D01*
X111824761Y54047620D01*
X112015238Y54047620D01*
X112110476Y54095239D01*
X112158095Y54142858D01*
X112205714Y54238096D01*
X112205714Y54428572D01*
X112158095Y54523810D01*
X112110476Y54571429D01*
X112015238Y54619048D01*
X131729523Y72047620D02*
X131158095Y72047620D01*
X131443809Y72047620D02*
X131443809Y73047620D01*
X131348571Y72904762D01*
X131253333Y72809524D01*
X131158095Y72761905D01*
X132586666Y73047620D02*
X132396190Y73047620D01*
X132300952Y73000000D01*
X132253333Y72952381D01*
X132158095Y72809524D01*
X132110476Y72619048D01*
X132110476Y72238096D01*
X132158095Y72142858D01*
X132205714Y72095239D01*
X132300952Y72047620D01*
X132491428Y72047620D01*
X132586666Y72095239D01*
X132634285Y72142858D01*
X132681904Y72238096D01*
X132681904Y72476191D01*
X132634285Y72571429D01*
X132586666Y72619048D01*
X132491428Y72666667D01*
X132300952Y72666667D01*
X132205714Y72619048D01*
X132158095Y72571429D01*
X132110476Y72476191D01*
X131729523Y54047620D02*
X131920000Y54047620D01*
X132015238Y54095239D01*
X132062857Y54142858D01*
X132158095Y54285715D01*
X132205714Y54476191D01*
X132205714Y54857143D01*
X132158095Y54952381D01*
X132110476Y55000000D01*
X132015238Y55047620D01*
X131824761Y55047620D01*
X131729523Y55000000D01*
X131681904Y54952381D01*
X131634285Y54857143D01*
X131634285Y54619048D01*
X131681904Y54523810D01*
X131729523Y54476191D01*
X131824761Y54428572D01*
X132015238Y54428572D01*
X132110476Y54476191D01*
X132158095Y54523810D01*
X132205714Y54619048D01*
%TO.C,SW1*%
X11366666Y29295239D02*
X11509523Y29247620D01*
X11747619Y29247620D01*
X11842857Y29295239D01*
X11890476Y29342858D01*
X11938095Y29438096D01*
X11938095Y29533334D01*
X11890476Y29628572D01*
X11842857Y29676191D01*
X11747619Y29723810D01*
X11557142Y29771429D01*
X11461904Y29819048D01*
X11414285Y29866667D01*
X11366666Y29961905D01*
X11366666Y30057143D01*
X11414285Y30152381D01*
X11461904Y30200000D01*
X11557142Y30247620D01*
X11795238Y30247620D01*
X11938095Y30200000D01*
X12271428Y30247620D02*
X12509523Y29247620D01*
X12700000Y29961905D01*
X12890476Y29247620D01*
X13128571Y30247620D01*
X14033333Y29247620D02*
X13461904Y29247620D01*
X13747619Y29247620D02*
X13747619Y30247620D01*
X13652380Y30104762D01*
X13557142Y30009524D01*
X13461904Y29961905D01*
%TO.C,R3*%
X24202380Y17613334D02*
X23726190Y17280000D01*
X24202380Y17041905D02*
X23202380Y17041905D01*
X23202380Y17422858D01*
X23250000Y17518096D01*
X23297619Y17565715D01*
X23392857Y17613334D01*
X23535714Y17613334D01*
X23630952Y17565715D01*
X23678571Y17518096D01*
X23726190Y17422858D01*
X23726190Y17041905D01*
X23202380Y17946667D02*
X23202380Y18565715D01*
X23583333Y18232381D01*
X23583333Y18375239D01*
X23630952Y18470477D01*
X23678571Y18518096D01*
X23773809Y18565715D01*
X24011904Y18565715D01*
X24107142Y18518096D01*
X24154761Y18470477D01*
X24202380Y18375239D01*
X24202380Y18089524D01*
X24154761Y17994286D01*
X24107142Y17946667D01*
D11*
%TO.C,U5*%
X106625000Y43280000D02*
X106625000Y37980000D01*
X106625000Y37980000D02*
X137225000Y37980000D01*
X137225000Y43280000D02*
X106625000Y43280000D01*
X137225000Y37980000D02*
X137225000Y39630000D01*
X137225000Y41630000D02*
X137225000Y43280000D01*
X137225000Y41630000D02*
G75*
G03*
X137225000Y39630000I0J-1000000D01*
G01*
%TO.C,TP1*%
X105340000Y27940000D02*
G75*
G03*
X105340000Y27940000I-1200000J0D01*
G01*
%TO.C,BZ1*%
X26580000Y11660000D02*
G75*
G03*
X26580000Y8660001I6400000J-1500000D01*
G01*
X39210000Y10160000D02*
G75*
G03*
X39210000Y10160000I-6230000J0D01*
G01*
%TO.C,Y1*%
X88600000Y8170000D02*
X88600000Y7070000D01*
X88550000Y9570000D02*
X86750000Y9570000D01*
X86700000Y8170000D02*
X86700000Y7070000D01*
%TO.C,U3*%
X96420000Y5010000D02*
X101720000Y5010000D01*
X96420000Y15290000D02*
X96420000Y5010000D01*
X101720000Y5010000D02*
X101720000Y15290000D01*
X101720000Y15290000D02*
X100070000Y15290000D01*
X98070000Y15290000D02*
X96420000Y15290000D01*
X98070000Y15290000D02*
G75*
G03*
X100070000Y15290000I1000000J0D01*
G01*
D10*
%TO.C,D4*%
X73900000Y64500000D02*
X73900000Y66500000D01*
X73900000Y78500000D02*
X75900000Y78500000D01*
X99900000Y75250000D02*
X99900000Y75750000D01*
X101900000Y75500000D02*
X99900000Y75500000D01*
X101900000Y78500000D02*
X103900000Y78500000D01*
X103900000Y50500000D02*
X103900000Y48500000D01*
X99150000Y75500000D02*
X99900000Y75250000D01*
X73900000Y76500000D02*
X73900000Y78500000D01*
X75900000Y48500000D02*
X73900000Y48500000D01*
X73900000Y64500000D02*
X74900000Y64500000D01*
X102900000Y74500000D02*
X102900000Y72500000D01*
X103900000Y48500000D02*
X101900000Y48500000D01*
X74900000Y62500000D02*
X73900000Y62500000D01*
X102650000Y72500000D02*
X103150000Y72500000D01*
X74900000Y64500000D02*
X74900000Y62500000D01*
X102900000Y71750000D02*
X102650000Y72500000D01*
X103150000Y72500000D02*
X102900000Y71750000D01*
X73900000Y48500000D02*
X73900000Y50500000D01*
X99900000Y75750000D02*
X99150000Y75500000D01*
X73900000Y62500000D02*
X73900000Y60500000D01*
X103900000Y78500000D02*
X103900000Y76500000D01*
X77900000Y72390000D02*
G75*
G03*
X77900000Y72390000I-1000000J0D01*
G01*
D11*
%TO.C,J3*%
X138490000Y26670000D02*
X138490000Y13910000D01*
X135830000Y29270000D02*
X137160000Y29270000D01*
X135830000Y13910000D02*
X138490000Y13910000D01*
X135830000Y27940000D02*
X135830000Y29270000D01*
X135830000Y26670000D02*
X138490000Y26670000D01*
X135830000Y26670000D02*
X135830000Y13910000D01*
%TO.C,SW3*%
X74020000Y87070000D02*
X68220000Y87070000D01*
X66020000Y86120000D02*
X66020000Y87120000D01*
X74120000Y80570000D02*
X68120000Y80570000D01*
X68020000Y85120000D02*
X68020000Y82520000D01*
X66020000Y87120000D02*
X67020000Y87120000D01*
X74220000Y85120000D02*
X74220000Y82520000D01*
D10*
%TO.C,D2*%
X33110000Y75500000D02*
X33860000Y75250000D01*
X33860000Y75250000D02*
X33860000Y75750000D01*
X33860000Y75750000D02*
X33110000Y75500000D01*
X36860000Y71750000D02*
X36610000Y72500000D01*
X37860000Y50500000D02*
X37860000Y48500000D01*
X35860000Y78500000D02*
X37860000Y78500000D01*
X36610000Y72500000D02*
X37110000Y72500000D01*
X7860000Y48500000D02*
X7860000Y50500000D01*
X35860000Y75500000D02*
X33860000Y75500000D01*
X9860000Y48500000D02*
X7860000Y48500000D01*
X7860000Y62500000D02*
X7860000Y60500000D01*
X8860000Y64500000D02*
X8860000Y62500000D01*
X8860000Y62500000D02*
X7860000Y62500000D01*
X37860000Y78500000D02*
X37860000Y76500000D01*
X37860000Y48500000D02*
X35860000Y48500000D01*
X37110000Y72500000D02*
X36860000Y71750000D01*
X7860000Y78500000D02*
X9860000Y78500000D01*
X7860000Y76500000D02*
X7860000Y78500000D01*
X36860000Y74500000D02*
X36860000Y72500000D01*
X7860000Y64500000D02*
X7860000Y66500000D01*
X7860000Y64500000D02*
X8860000Y64500000D01*
X11860000Y72390000D02*
G75*
G03*
X11860000Y72390000I-1000000J0D01*
G01*
D11*
%TO.C,R14*%
X121870000Y81670000D02*
X125320000Y81670000D01*
X121870000Y85970000D02*
X125320000Y85970000D01*
X121844524Y85954388D02*
G75*
G03*
X121870000Y81670000I1325476J-2134388D01*
G01*
X125348027Y81687856D02*
G75*
G03*
X125320000Y85970000I-1378027J2132144D01*
G01*
%TO.C,U2*%
X85150000Y22960000D02*
X49470000Y22960000D01*
X85150000Y17660000D02*
X85150000Y19310000D01*
X85150000Y21310000D02*
X85150000Y22960000D01*
X49470000Y17660000D02*
X85150000Y17660000D01*
X49470000Y22960000D02*
X49470000Y17660000D01*
X85150000Y21310000D02*
G75*
G03*
X85150000Y19310000I0J-1000000D01*
G01*
%TO.C,Y2*%
X57600000Y25390000D02*
X70200000Y25390000D01*
X70200000Y30490000D02*
X57600000Y30490000D01*
X70200000Y25390000D02*
X70200000Y30490000D01*
%TO.C,SW2*%
X33000000Y87120000D02*
X34000000Y87120000D01*
X41100000Y80570000D02*
X35100000Y80570000D01*
X33000000Y86120000D02*
X33000000Y87120000D01*
X41000000Y87070000D02*
X35200000Y87070000D01*
X41200000Y85120000D02*
X41200000Y82520000D01*
X35000000Y85120000D02*
X35000000Y82520000D01*
%TO.C,SW4*%
X107140000Y80570000D02*
X101140000Y80570000D01*
X99040000Y86120000D02*
X99040000Y87120000D01*
X107240000Y85120000D02*
X107240000Y82520000D01*
X107040000Y87070000D02*
X101240000Y87070000D01*
X99040000Y87120000D02*
X100040000Y87120000D01*
X101040000Y85120000D02*
X101040000Y82520000D01*
D10*
%TO.C,D5*%
X69880000Y74500000D02*
X69880000Y72500000D01*
X70880000Y78500000D02*
X70880000Y76500000D01*
X66880000Y75250000D02*
X66880000Y75750000D01*
X40880000Y62500000D02*
X40880000Y60500000D01*
X42880000Y48500000D02*
X40880000Y48500000D01*
X40880000Y78500000D02*
X42880000Y78500000D01*
X40880000Y64500000D02*
X40880000Y66500000D01*
X70130000Y72500000D02*
X69880000Y71750000D01*
X66880000Y75750000D02*
X66130000Y75500000D01*
X40880000Y48500000D02*
X40880000Y50500000D01*
X69630000Y72500000D02*
X70130000Y72500000D01*
X66130000Y75500000D02*
X66880000Y75250000D01*
X68880000Y75500000D02*
X66880000Y75500000D01*
X41880000Y62500000D02*
X40880000Y62500000D01*
X68880000Y78500000D02*
X70880000Y78500000D01*
X40880000Y76500000D02*
X40880000Y78500000D01*
X69880000Y71750000D02*
X69630000Y72500000D01*
X70880000Y50500000D02*
X70880000Y48500000D01*
X40880000Y64500000D02*
X41880000Y64500000D01*
X41880000Y64500000D02*
X41880000Y62500000D01*
X70880000Y48500000D02*
X68880000Y48500000D01*
X44880000Y72390000D02*
G75*
G03*
X44880000Y72390000I-1000000J0D01*
G01*
D11*
%TO.C,J1*%
X18990000Y16085000D02*
X18990000Y3325000D01*
X18990000Y18685000D02*
X20320000Y18685000D01*
X18990000Y17355000D02*
X18990000Y18685000D01*
X18990000Y16085000D02*
X21650000Y16085000D01*
X21650000Y16085000D02*
X21650000Y3325000D01*
X18990000Y3325000D02*
X21650000Y3325000D01*
%TO.C,U4*%
X7565000Y37980000D02*
X38165000Y37980000D01*
X38165000Y37980000D02*
X38165000Y39630000D01*
X7565000Y43280000D02*
X7565000Y37980000D01*
X38165000Y41630000D02*
X38165000Y43280000D01*
X38165000Y43280000D02*
X7565000Y43280000D01*
X38165000Y41630000D02*
G75*
G03*
X38165000Y39630000I0J-1000000D01*
G01*
%TO.C,U6*%
X73605000Y43280000D02*
X73605000Y37980000D01*
X104205000Y41630000D02*
X104205000Y43280000D01*
X104205000Y37980000D02*
X104205000Y39630000D01*
X104205000Y43280000D02*
X73605000Y43280000D01*
X73605000Y37980000D02*
X104205000Y37980000D01*
X104205000Y41630000D02*
G75*
G03*
X104205000Y39630000I0J-1000000D01*
G01*
%TO.C,TP2*%
X97720000Y27940000D02*
G75*
G03*
X97720000Y27940000I-1200000J0D01*
G01*
%TO.C,U1*%
X46605000Y6455000D02*
X46605000Y3625000D01*
X46335000Y7955000D02*
X46335000Y6455000D01*
X46335000Y6455000D02*
X46605000Y6455000D01*
X52965000Y6455000D02*
X52965000Y5355000D01*
X53235000Y7955000D02*
X53235000Y6455000D01*
X53235000Y6455000D02*
X52965000Y6455000D01*
%TO.C,BT1*%
X108716314Y20829983D02*
X106266314Y20829983D01*
X106266314Y14729983D02*
X108716314Y14729983D01*
X105716314Y20279983D02*
X105716314Y15279983D01*
X105716314Y15279983D02*
G75*
G03*
X106266314Y14729983I549999J-1D01*
G01*
X133029757Y17263992D02*
G75*
G03*
X109416314Y21299983I-12063443J515991D01*
G01*
X109416314Y14259983D02*
G75*
G03*
X133029757Y18295974I11550000J3520000D01*
G01*
X109421083Y14236498D02*
G75*
G03*
X108716314Y14729983I-704769J-256515D01*
G01*
X108716314Y20829983D02*
G75*
G03*
X109421083Y21323468I0J750000D01*
G01*
X106266314Y20829983D02*
G75*
G03*
X105716314Y20279983I-1J-549999D01*
G01*
%TO.C,D6*%
X9305000Y18740000D02*
X6620000Y18740000D01*
X9305000Y16820000D02*
X9305000Y18740000D01*
X6620000Y16820000D02*
X9305000Y16820000D01*
%TO.C,U7*%
X71185000Y43280000D02*
X40585000Y43280000D01*
X71185000Y41630000D02*
X71185000Y43280000D01*
X40585000Y37980000D02*
X71185000Y37980000D01*
X40585000Y43280000D02*
X40585000Y37980000D01*
X71185000Y37980000D02*
X71185000Y39630000D01*
X71185000Y41630000D02*
G75*
G03*
X71185000Y39630000I0J-1000000D01*
G01*
%TO.C,D1*%
X100745000Y23820000D02*
X98060000Y23820000D01*
X100745000Y21900000D02*
X100745000Y23820000D01*
X98060000Y21900000D02*
X100745000Y21900000D01*
%TO.C,J4*%
X13970000Y16510000D02*
X13970000Y19110000D01*
X11370000Y11370000D02*
X16570000Y11370000D01*
X11370000Y17780000D02*
X11370000Y19110000D01*
X11370000Y16510000D02*
X11370000Y11370000D01*
X11370000Y16510000D02*
X13970000Y16510000D01*
X13970000Y19110000D02*
X16570000Y19110000D01*
X11370000Y19110000D02*
X12700000Y19110000D01*
X16570000Y19110000D02*
X16570000Y11370000D01*
D10*
%TO.C,D3*%
X106920000Y48500000D02*
X106920000Y50500000D01*
X108920000Y48500000D02*
X106920000Y48500000D01*
X132170000Y75500000D02*
X132920000Y75250000D01*
X136170000Y72500000D02*
X135920000Y71750000D01*
X136920000Y48500000D02*
X134920000Y48500000D01*
X106920000Y64500000D02*
X106920000Y66500000D01*
X136920000Y78500000D02*
X136920000Y76500000D01*
X106920000Y76500000D02*
X106920000Y78500000D01*
X106920000Y64500000D02*
X107920000Y64500000D01*
X134920000Y75500000D02*
X132920000Y75500000D01*
X106920000Y78500000D02*
X108920000Y78500000D01*
X135920000Y74500000D02*
X135920000Y72500000D01*
X106920000Y62500000D02*
X106920000Y60500000D01*
X135670000Y72500000D02*
X136170000Y72500000D01*
X107920000Y62500000D02*
X106920000Y62500000D01*
X132920000Y75250000D02*
X132920000Y75750000D01*
X107920000Y64500000D02*
X107920000Y62500000D01*
X132920000Y75750000D02*
X132170000Y75500000D01*
X136920000Y50500000D02*
X136920000Y48500000D01*
X135920000Y71750000D02*
X135670000Y72500000D01*
X134920000Y78500000D02*
X136920000Y78500000D01*
X110920000Y72390000D02*
G75*
G03*
X110920000Y72390000I-1000000J0D01*
G01*
D11*
%TO.C,SW1*%
X7600000Y28700000D02*
X8600000Y28700000D01*
X15700000Y22150000D02*
X9700000Y22150000D01*
X15600000Y28650000D02*
X9800000Y28650000D01*
X7600000Y27700000D02*
X7600000Y28700000D01*
X15800000Y26700000D02*
X15800000Y24100000D01*
X9600000Y26700000D02*
X9600000Y24100000D01*
%TD*%
%LPC*%
D12*
%TO.C,U5*%
X135895000Y44440000D03*
D13*
X133355000Y44440000D03*
X130815000Y44440000D03*
X128275000Y44440000D03*
X125735000Y44440000D03*
X123195000Y44440000D03*
X120655000Y44440000D03*
X118115000Y44440000D03*
X115575000Y44440000D03*
X113035000Y44440000D03*
X110495000Y44440000D03*
X107955000Y44440000D03*
X107955000Y36820000D03*
X110495000Y36820000D03*
X113035000Y36820000D03*
X115575000Y36820000D03*
X118115000Y36820000D03*
X120655000Y36820000D03*
X123195000Y36820000D03*
X125735000Y36820000D03*
X128275000Y36820000D03*
X130815000Y36820000D03*
X133355000Y36820000D03*
X135895000Y36820000D03*
%TD*%
D14*
%TO.C,TP1*%
X104140000Y27940000D03*
%TD*%
D15*
%TO.C,BZ1*%
X30480000Y10160000D03*
D14*
X35480000Y10160000D03*
%TD*%
D16*
%TO.C,H4*%
X136260000Y4780000D03*
%TD*%
D17*
%TO.C,C9*%
X12630000Y33870000D03*
X12630000Y32170000D03*
%TD*%
%TO.C,C6*%
X43180000Y6770000D03*
X43180000Y8470000D03*
%TD*%
D18*
%TO.C,Y1*%
X87650000Y8870000D03*
X87650000Y6370000D03*
%TD*%
D12*
%TO.C,U3*%
X95260000Y13960000D03*
D13*
X95260000Y11420000D03*
X95260000Y8880000D03*
X95260000Y6340000D03*
X102880000Y6340000D03*
X102880000Y8880000D03*
X102880000Y11420000D03*
X102880000Y13960000D03*
%TD*%
D19*
%TO.C,R16*%
X8470000Y12700000D03*
X6770000Y12700000D03*
%TD*%
D20*
%TO.C,D4*%
X76900000Y72390000D03*
X76900000Y69850000D03*
X76900000Y67310000D03*
X76900000Y64770000D03*
X76900000Y62230000D03*
X76900000Y59690000D03*
X76900000Y57150000D03*
X76900000Y54610000D03*
X100900000Y54610000D03*
X100900000Y57150000D03*
X100900000Y59690000D03*
X100900000Y62230000D03*
X100900000Y64770000D03*
X100900000Y67310000D03*
X100900000Y69850000D03*
X100900000Y72390000D03*
%TD*%
D19*
%TO.C,R5*%
X107530000Y7620000D03*
X105830000Y7620000D03*
%TD*%
%TO.C,R17*%
X38410000Y16780000D03*
X40110000Y16780000D03*
%TD*%
%TO.C,C14*%
X77890000Y33020000D03*
X79590000Y33020000D03*
%TD*%
D21*
%TO.C,J3*%
X137160000Y27940000D03*
D22*
X137160000Y25400000D03*
X137160000Y22860000D03*
X137160000Y20320000D03*
X137160000Y17780000D03*
X137160000Y15240000D03*
%TD*%
D19*
%TO.C,R6*%
X107530000Y5080000D03*
X105830000Y5080000D03*
%TD*%
D23*
%TO.C,SW3*%
X67120000Y86070000D03*
X75120000Y86070000D03*
X67120000Y81570000D03*
X75120000Y81570000D03*
%TD*%
D19*
%TO.C,R13*%
X95670000Y83820000D03*
X97370000Y83820000D03*
%TD*%
%TO.C,C3*%
X71980000Y27940000D03*
X73680000Y27940000D03*
%TD*%
%TO.C,R1*%
X44870000Y20320000D03*
X46570000Y20320000D03*
%TD*%
D20*
%TO.C,D2*%
X10860000Y72390000D03*
X10860000Y69850000D03*
X10860000Y67310000D03*
X10860000Y64770000D03*
X10860000Y62230000D03*
X10860000Y59690000D03*
X10860000Y57150000D03*
X10860000Y54610000D03*
X34860000Y54610000D03*
X34860000Y57150000D03*
X34860000Y59690000D03*
X34860000Y62230000D03*
X34860000Y64770000D03*
X34860000Y67310000D03*
X34860000Y69850000D03*
X34860000Y72390000D03*
%TD*%
D16*
%TO.C,H2*%
X136260000Y84780000D03*
%TD*%
D19*
%TO.C,C12*%
X82970000Y33020000D03*
X84670000Y33020000D03*
%TD*%
%TO.C,R15*%
X128690000Y83820000D03*
X130390000Y83820000D03*
%TD*%
D17*
%TO.C,C8*%
X17780000Y31930000D03*
X17780000Y33630000D03*
%TD*%
D24*
%TO.C,R14*%
X121920000Y83820000D03*
X125320000Y83820000D03*
%TD*%
D16*
%TO.C,H3*%
X6260000Y4780000D03*
%TD*%
D19*
%TO.C,R11*%
X29630000Y83820000D03*
X31330000Y83820000D03*
%TD*%
D12*
%TO.C,U2*%
X83820000Y24120000D03*
D13*
X81280000Y24120000D03*
X78740000Y24120000D03*
X76200000Y24120000D03*
X73660000Y24120000D03*
X71120000Y24120000D03*
X68580000Y24120000D03*
X66040000Y24120000D03*
X63500000Y24120000D03*
X60960000Y24120000D03*
X58420000Y24120000D03*
X55880000Y24120000D03*
X53340000Y24120000D03*
X50800000Y24120000D03*
X50800000Y16500000D03*
X53340000Y16500000D03*
X55880000Y16500000D03*
X58420000Y16500000D03*
X60960000Y16500000D03*
X63500000Y16500000D03*
X66040000Y16500000D03*
X68580000Y16500000D03*
X71120000Y16500000D03*
X73660000Y16500000D03*
X76200000Y16500000D03*
X78740000Y16500000D03*
X81280000Y16500000D03*
X83820000Y16500000D03*
%TD*%
D25*
%TO.C,Y2*%
X67750000Y27940000D03*
X59250000Y27940000D03*
%TD*%
D23*
%TO.C,SW2*%
X34100000Y86070000D03*
X42100000Y86070000D03*
X34100000Y81570000D03*
X42100000Y81570000D03*
%TD*%
D19*
%TO.C,R10*%
X56730000Y33020000D03*
X55030000Y33020000D03*
%TD*%
D17*
%TO.C,R4*%
X24780000Y25630000D03*
X24780000Y23930000D03*
%TD*%
D16*
%TO.C,H1*%
X6260000Y84780000D03*
%TD*%
D23*
%TO.C,SW4*%
X100140000Y86070000D03*
X108140000Y86070000D03*
X100140000Y81570000D03*
X108140000Y81570000D03*
%TD*%
D20*
%TO.C,D5*%
X43880000Y72390000D03*
X43880000Y69850000D03*
X43880000Y67310000D03*
X43880000Y64770000D03*
X43880000Y62230000D03*
X43880000Y59690000D03*
X43880000Y57150000D03*
X43880000Y54610000D03*
X67880000Y54610000D03*
X67880000Y57150000D03*
X67880000Y59690000D03*
X67880000Y62230000D03*
X67880000Y64770000D03*
X67880000Y67310000D03*
X67880000Y69850000D03*
X67880000Y72390000D03*
%TD*%
D21*
%TO.C,J1*%
X20320000Y17355000D03*
D22*
X20320000Y14815000D03*
X20320000Y12275000D03*
X20320000Y9735000D03*
X20320000Y7195000D03*
X20320000Y4655000D03*
%TD*%
D12*
%TO.C,U4*%
X36835000Y44440000D03*
D13*
X34295000Y44440000D03*
X31755000Y44440000D03*
X29215000Y44440000D03*
X26675000Y44440000D03*
X24135000Y44440000D03*
X21595000Y44440000D03*
X19055000Y44440000D03*
X16515000Y44440000D03*
X13975000Y44440000D03*
X11435000Y44440000D03*
X8895000Y44440000D03*
X8895000Y36820000D03*
X11435000Y36820000D03*
X13975000Y36820000D03*
X16515000Y36820000D03*
X19055000Y36820000D03*
X21595000Y36820000D03*
X24135000Y36820000D03*
X26675000Y36820000D03*
X29215000Y36820000D03*
X31755000Y36820000D03*
X34295000Y36820000D03*
X36835000Y36820000D03*
%TD*%
D12*
%TO.C,U6*%
X102875000Y44440000D03*
D13*
X100335000Y44440000D03*
X97795000Y44440000D03*
X95255000Y44440000D03*
X92715000Y44440000D03*
X90175000Y44440000D03*
X87635000Y44440000D03*
X85095000Y44440000D03*
X82555000Y44440000D03*
X80015000Y44440000D03*
X77475000Y44440000D03*
X74935000Y44440000D03*
X74935000Y36820000D03*
X77475000Y36820000D03*
X80015000Y36820000D03*
X82555000Y36820000D03*
X85095000Y36820000D03*
X87635000Y36820000D03*
X90175000Y36820000D03*
X92715000Y36820000D03*
X95255000Y36820000D03*
X97795000Y36820000D03*
X100335000Y36820000D03*
X102875000Y36820000D03*
%TD*%
D14*
%TO.C,TP2*%
X96520000Y27940000D03*
%TD*%
D19*
%TO.C,C13*%
X49950000Y33020000D03*
X51650000Y33020000D03*
%TD*%
D26*
%TO.C,U1*%
X47505000Y4725000D03*
D27*
X49785000Y11025000D03*
D26*
X52065000Y4725000D03*
%TD*%
D19*
%TO.C,R7*%
X24080000Y33020000D03*
X25780000Y33020000D03*
%TD*%
%TO.C,R9*%
X89750000Y30480000D03*
X88050000Y30480000D03*
%TD*%
%TO.C,C2*%
X90590000Y20320000D03*
X92290000Y20320000D03*
%TD*%
D28*
%TO.C,BT1*%
X107766314Y17779983D03*
D29*
X128256314Y17779983D03*
%TD*%
D19*
%TO.C,C1*%
X72810000Y10160000D03*
X74510000Y10160000D03*
%TD*%
D30*
%TO.C,D6*%
X8557500Y17780000D03*
X6682500Y17780000D03*
%TD*%
D19*
%TO.C,C11*%
X110910000Y30480000D03*
X112610000Y30480000D03*
%TD*%
D12*
%TO.C,U7*%
X69855000Y44440000D03*
D13*
X67315000Y44440000D03*
X64775000Y44440000D03*
X62235000Y44440000D03*
X59695000Y44440000D03*
X57155000Y44440000D03*
X54615000Y44440000D03*
X52075000Y44440000D03*
X49535000Y44440000D03*
X46995000Y44440000D03*
X44455000Y44440000D03*
X41915000Y44440000D03*
X41915000Y36820000D03*
X44455000Y36820000D03*
X46995000Y36820000D03*
X49535000Y36820000D03*
X52075000Y36820000D03*
X54615000Y36820000D03*
X57155000Y36820000D03*
X59695000Y36820000D03*
X62235000Y36820000D03*
X64775000Y36820000D03*
X67315000Y36820000D03*
X69855000Y36820000D03*
%TD*%
D19*
%TO.C,C15*%
X44870000Y33020000D03*
X46570000Y33020000D03*
%TD*%
D17*
%TO.C,C7*%
X55880000Y6770000D03*
X55880000Y8470000D03*
%TD*%
D19*
%TO.C,C4*%
X53360000Y27940000D03*
X51660000Y27940000D03*
%TD*%
%TO.C,R8*%
X126150000Y33020000D03*
X127850000Y33020000D03*
%TD*%
D30*
%TO.C,D1*%
X99997500Y22860000D03*
X98122500Y22860000D03*
%TD*%
D19*
%TO.C,R2*%
X95670000Y20320000D03*
X97370000Y20320000D03*
%TD*%
D17*
%TO.C,C5*%
X5080000Y23710000D03*
X5080000Y22010000D03*
%TD*%
D19*
%TO.C,R12*%
X62650000Y83820000D03*
X64350000Y83820000D03*
%TD*%
D21*
%TO.C,J4*%
X12700000Y17780000D03*
D22*
X15240000Y17780000D03*
X12700000Y15240000D03*
X15240000Y15240000D03*
X12700000Y12700000D03*
X15240000Y12700000D03*
%TD*%
D19*
%TO.C,C10*%
X115990000Y33020000D03*
X117690000Y33020000D03*
%TD*%
D20*
%TO.C,D3*%
X109920000Y72390000D03*
X109920000Y69850000D03*
X109920000Y67310000D03*
X109920000Y64770000D03*
X109920000Y62230000D03*
X109920000Y59690000D03*
X109920000Y57150000D03*
X109920000Y54610000D03*
X133920000Y54610000D03*
X133920000Y57150000D03*
X133920000Y59690000D03*
X133920000Y62230000D03*
X133920000Y64770000D03*
X133920000Y67310000D03*
X133920000Y69850000D03*
X133920000Y72390000D03*
%TD*%
D23*
%TO.C,SW1*%
X16700000Y23150000D03*
X8700000Y23150000D03*
X16700000Y27650000D03*
X8700000Y27650000D03*
%TD*%
D17*
%TO.C,R3*%
X25400000Y16930000D03*
X25400000Y18630000D03*
%TD*%
D31*
%TO.C,J2*%
X63500000Y11120000D03*
D32*
X68800000Y8820000D03*
X66300000Y5120000D03*
%TD*%
M02*
