%TF.GenerationSoftware,KiCad,Pcbnew,(6.0.5-0)*%
%TF.CreationDate,2022-07-22T01:02:37-04:00*%
%TF.ProjectId,YWS_clock,5957535f-636c-46f6-936b-2e6b69636164,rev?*%
%TF.SameCoordinates,PX4b17a20PY8a12ae0*%
%TF.FileFunction,Paste,Top*%
%TF.FilePolarity,Positive*%
%FSLAX46Y46*%
G04 Gerber Fmt 4.6, Leading zero omitted, Abs format (unit mm)*
G04 Created by KiCad (PCBNEW (6.0.5-0)) date 2022-07-22 01:02:37*
%MOMM*%
%LPD*%
G01*
G04 APERTURE LIST*
G04 Aperture macros list*
%AMRoundRect*
0 Rectangle with rounded corners*
0 $1 Rounding radius*
0 $2 $3 $4 $5 $6 $7 $8 $9 X,Y pos of 4 corners*
0 Add a 4 corners polygon primitive as box body*
4,1,4,$2,$3,$4,$5,$6,$7,$8,$9,$2,$3,0*
0 Add four circle primitives for the rounded corners*
1,1,$1+$1,$2,$3*
1,1,$1+$1,$4,$5*
1,1,$1+$1,$6,$7*
1,1,$1+$1,$8,$9*
0 Add four rect primitives between the rounded corners*
20,1,$1+$1,$2,$3,$4,$5,0*
20,1,$1+$1,$4,$5,$6,$7,0*
20,1,$1+$1,$6,$7,$8,$9,0*
20,1,$1+$1,$8,$9,$2,$3,0*%
G04 Aperture macros list end*
%ADD10R,1.400000X1.150000*%
%ADD11R,1.800000X1.000000*%
%ADD12R,1.150000X1.400000*%
%ADD13R,1.600000X1.400000*%
%ADD14R,4.500000X2.000000*%
%ADD15R,2.750000X3.050000*%
%ADD16R,1.200000X2.200000*%
%ADD17RoundRect,0.243750X0.243750X0.456250X-0.243750X0.456250X-0.243750X-0.456250X0.243750X-0.456250X0*%
G04 APERTURE END LIST*
D10*
%TO.C,C9*%
X12630000Y33870000D03*
X12630000Y32170000D03*
%TD*%
%TO.C,C6*%
X43180000Y6770000D03*
X43180000Y8470000D03*
%TD*%
D11*
%TO.C,Y1*%
X87650000Y8870000D03*
X87650000Y6370000D03*
%TD*%
D12*
%TO.C,R5*%
X107530000Y7620000D03*
X105830000Y7620000D03*
%TD*%
%TO.C,C1*%
X87260000Y24780000D03*
X88960000Y24780000D03*
%TD*%
%TO.C,R17*%
X38410000Y16780000D03*
X40110000Y16780000D03*
%TD*%
%TO.C,C14*%
X77890000Y33020000D03*
X79590000Y33020000D03*
%TD*%
%TO.C,R6*%
X107530000Y5080000D03*
X105830000Y5080000D03*
%TD*%
D13*
%TO.C,SW3*%
X67120000Y86070000D03*
X75120000Y86070000D03*
X67120000Y81570000D03*
X75120000Y81570000D03*
%TD*%
D12*
%TO.C,R13*%
X95670000Y83820000D03*
X97370000Y83820000D03*
%TD*%
%TO.C,C3*%
X71980000Y27940000D03*
X73680000Y27940000D03*
%TD*%
%TO.C,R1*%
X44870000Y20320000D03*
X46570000Y20320000D03*
%TD*%
%TO.C,C12*%
X82970000Y33020000D03*
X84670000Y33020000D03*
%TD*%
%TO.C,R15*%
X128690000Y83820000D03*
X130390000Y83820000D03*
%TD*%
D10*
%TO.C,C8*%
X17780000Y33630000D03*
X17780000Y31930000D03*
%TD*%
D12*
%TO.C,R11*%
X29630000Y83820000D03*
X31330000Y83820000D03*
%TD*%
D14*
%TO.C,Y2*%
X67750000Y27940000D03*
X59250000Y27940000D03*
%TD*%
D13*
%TO.C,SW2*%
X34100000Y86070000D03*
X42100000Y86070000D03*
X34100000Y81570000D03*
X42100000Y81570000D03*
%TD*%
D12*
%TO.C,R10*%
X56730000Y33020000D03*
X55030000Y33020000D03*
%TD*%
D10*
%TO.C,R4*%
X24780000Y25630000D03*
X24780000Y23930000D03*
%TD*%
D13*
%TO.C,SW4*%
X100140000Y86070000D03*
X108140000Y86070000D03*
X100140000Y81570000D03*
X108140000Y81570000D03*
%TD*%
D12*
%TO.C,C13*%
X49950000Y33020000D03*
X51650000Y33020000D03*
%TD*%
D15*
%TO.C,U1*%
X51310000Y9350000D03*
X51310000Y12700000D03*
X48260000Y12700000D03*
X48260000Y9350000D03*
D16*
X47505000Y4725000D03*
X52065000Y4725000D03*
%TD*%
D12*
%TO.C,R7*%
X24080000Y33020000D03*
X25780000Y33020000D03*
%TD*%
%TO.C,R9*%
X89750000Y30480000D03*
X88050000Y30480000D03*
%TD*%
%TO.C,C2*%
X90590000Y20320000D03*
X92290000Y20320000D03*
%TD*%
%TO.C,C11*%
X110910000Y30480000D03*
X112610000Y30480000D03*
%TD*%
%TO.C,C15*%
X44870000Y33020000D03*
X46570000Y33020000D03*
%TD*%
D10*
%TO.C,C7*%
X55880000Y6770000D03*
X55880000Y8470000D03*
%TD*%
D12*
%TO.C,C4*%
X53360000Y27940000D03*
X51660000Y27940000D03*
%TD*%
%TO.C,R8*%
X126150000Y33020000D03*
X127850000Y33020000D03*
%TD*%
D17*
%TO.C,D1*%
X99997500Y22860000D03*
X98122500Y22860000D03*
%TD*%
D12*
%TO.C,R2*%
X95670000Y20320000D03*
X97370000Y20320000D03*
%TD*%
D10*
%TO.C,C5*%
X5080000Y23710000D03*
X5080000Y22010000D03*
%TD*%
D12*
%TO.C,R12*%
X62650000Y83820000D03*
X64350000Y83820000D03*
%TD*%
%TO.C,C10*%
X115990000Y33020000D03*
X117690000Y33020000D03*
%TD*%
D13*
%TO.C,SW1*%
X8700000Y27650000D03*
X16700000Y27650000D03*
X8700000Y23150000D03*
X16700000Y23150000D03*
%TD*%
D10*
%TO.C,R3*%
X25400000Y16930000D03*
X25400000Y18630000D03*
%TD*%
M02*
