%TF.GenerationSoftware,KiCad,Pcbnew,(6.0.5-0)*%
%TF.CreationDate,2022-07-22T01:22:38-04:00*%
%TF.ProjectId,YWS_clock,5957535f-636c-46f6-936b-2e6b69636164,rev?*%
%TF.SameCoordinates,PX4b17a20PY8a12ae0*%
%TF.FileFunction,Soldermask,Bot*%
%TF.FilePolarity,Negative*%
%FSLAX46Y46*%
G04 Gerber Fmt 4.6, Leading zero omitted, Abs format (unit mm)*
G04 Created by KiCad (PCBNEW (6.0.5-0)) date 2022-07-22 01:22:38*
%MOMM*%
%LPD*%
G01*
G04 APERTURE LIST*
G04 Aperture macros list*
%AMRoundRect*
0 Rectangle with rounded corners*
0 $1 Rounding radius*
0 $2 $3 $4 $5 $6 $7 $8 $9 X,Y pos of 4 corners*
0 Add a 4 corners polygon primitive as box body*
4,1,4,$2,$3,$4,$5,$6,$7,$8,$9,$2,$3,0*
0 Add four circle primitives for the rounded corners*
1,1,$1+$1,$2,$3*
1,1,$1+$1,$4,$5*
1,1,$1+$1,$6,$7*
1,1,$1+$1,$8,$9*
0 Add four rect primitives between the rounded corners*
20,1,$1+$1,$2,$3,$4,$5,0*
20,1,$1+$1,$4,$5,$6,$7,0*
20,1,$1+$1,$6,$7,$8,$9,0*
20,1,$1+$1,$8,$9,$2,$3,0*%
G04 Aperture macros list end*
%ADD10R,1.600000X1.600000*%
%ADD11O,1.600000X1.600000*%
%ADD12C,2.000000*%
%ADD13R,2.000000X2.000000*%
%ADD14C,3.200000*%
%ADD15C,1.524000*%
%ADD16R,1.700000X1.700000*%
%ADD17O,1.700000X1.700000*%
%ADD18RoundRect,0.400000X0.400000X-0.900000X0.400000X0.900000X-0.400000X0.900000X-0.400000X-0.900000X0*%
%ADD19RoundRect,0.400000X0.900000X-0.400000X0.900000X0.400000X-0.900000X0.400000X-0.900000X-0.400000X0*%
%ADD20C,1.600000*%
%ADD21R,3.000000X3.000000*%
%ADD22C,3.000000*%
G04 APERTURE END LIST*
D10*
%TO.C,U5*%
X135895000Y44440000D03*
D11*
X133355000Y44440000D03*
X130815000Y44440000D03*
X128275000Y44440000D03*
X125735000Y44440000D03*
X123195000Y44440000D03*
X120655000Y44440000D03*
X118115000Y44440000D03*
X115575000Y44440000D03*
X113035000Y44440000D03*
X110495000Y44440000D03*
X107955000Y44440000D03*
X107955000Y36820000D03*
X110495000Y36820000D03*
X113035000Y36820000D03*
X115575000Y36820000D03*
X118115000Y36820000D03*
X120655000Y36820000D03*
X123195000Y36820000D03*
X125735000Y36820000D03*
X128275000Y36820000D03*
X130815000Y36820000D03*
X133355000Y36820000D03*
X135895000Y36820000D03*
%TD*%
D12*
%TO.C,TP1*%
X104140000Y27940000D03*
%TD*%
D13*
%TO.C,BZ1*%
X30480000Y10160000D03*
D12*
X35480000Y10160000D03*
%TD*%
D14*
%TO.C,H4*%
X136260000Y4780000D03*
%TD*%
D10*
%TO.C,U3*%
X95260000Y13960000D03*
D11*
X95260000Y11420000D03*
X95260000Y8880000D03*
X95260000Y6340000D03*
X102880000Y6340000D03*
X102880000Y8880000D03*
X102880000Y11420000D03*
X102880000Y13960000D03*
%TD*%
D15*
%TO.C,D4*%
X76900000Y72390000D03*
X76900000Y69850000D03*
X76900000Y67310000D03*
X76900000Y64770000D03*
X76900000Y62230000D03*
X76900000Y59690000D03*
X76900000Y57150000D03*
X76900000Y54610000D03*
X100900000Y54610000D03*
X100900000Y57150000D03*
X100900000Y59690000D03*
X100900000Y62230000D03*
X100900000Y64770000D03*
X100900000Y67310000D03*
X100900000Y69850000D03*
X100900000Y72390000D03*
%TD*%
D16*
%TO.C,J3*%
X137160000Y27940000D03*
D17*
X137160000Y25400000D03*
X137160000Y22860000D03*
X137160000Y20320000D03*
X137160000Y17780000D03*
X137160000Y15240000D03*
%TD*%
D18*
%TO.C,J2*%
X59410000Y8780000D03*
X65410000Y8780000D03*
D19*
X62410000Y4080000D03*
%TD*%
D15*
%TO.C,D2*%
X10860000Y72390000D03*
X10860000Y69850000D03*
X10860000Y67310000D03*
X10860000Y64770000D03*
X10860000Y62230000D03*
X10860000Y59690000D03*
X10860000Y57150000D03*
X10860000Y54610000D03*
X34860000Y54610000D03*
X34860000Y57150000D03*
X34860000Y59690000D03*
X34860000Y62230000D03*
X34860000Y64770000D03*
X34860000Y67310000D03*
X34860000Y69850000D03*
X34860000Y72390000D03*
%TD*%
D14*
%TO.C,H2*%
X136260000Y84780000D03*
%TD*%
D20*
%TO.C,R14*%
X121920000Y83820000D03*
X125320000Y83820000D03*
%TD*%
D14*
%TO.C,H3*%
X6260000Y4780000D03*
%TD*%
D10*
%TO.C,U2*%
X83820000Y24120000D03*
D11*
X81280000Y24120000D03*
X78740000Y24120000D03*
X76200000Y24120000D03*
X73660000Y24120000D03*
X71120000Y24120000D03*
X68580000Y24120000D03*
X66040000Y24120000D03*
X63500000Y24120000D03*
X60960000Y24120000D03*
X58420000Y24120000D03*
X55880000Y24120000D03*
X53340000Y24120000D03*
X50800000Y24120000D03*
X50800000Y16500000D03*
X53340000Y16500000D03*
X55880000Y16500000D03*
X58420000Y16500000D03*
X60960000Y16500000D03*
X63500000Y16500000D03*
X66040000Y16500000D03*
X68580000Y16500000D03*
X71120000Y16500000D03*
X73660000Y16500000D03*
X76200000Y16500000D03*
X78740000Y16500000D03*
X81280000Y16500000D03*
X83820000Y16500000D03*
%TD*%
D14*
%TO.C,H1*%
X6260000Y84780000D03*
%TD*%
D15*
%TO.C,D5*%
X43880000Y72390000D03*
X43880000Y69850000D03*
X43880000Y67310000D03*
X43880000Y64770000D03*
X43880000Y62230000D03*
X43880000Y59690000D03*
X43880000Y57150000D03*
X43880000Y54610000D03*
X67880000Y54610000D03*
X67880000Y57150000D03*
X67880000Y59690000D03*
X67880000Y62230000D03*
X67880000Y64770000D03*
X67880000Y67310000D03*
X67880000Y69850000D03*
X67880000Y72390000D03*
%TD*%
D16*
%TO.C,J1*%
X20320000Y17355000D03*
D17*
X20320000Y14815000D03*
X20320000Y12275000D03*
X20320000Y9735000D03*
X20320000Y7195000D03*
X20320000Y4655000D03*
%TD*%
D10*
%TO.C,U4*%
X36835000Y44440000D03*
D11*
X34295000Y44440000D03*
X31755000Y44440000D03*
X29215000Y44440000D03*
X26675000Y44440000D03*
X24135000Y44440000D03*
X21595000Y44440000D03*
X19055000Y44440000D03*
X16515000Y44440000D03*
X13975000Y44440000D03*
X11435000Y44440000D03*
X8895000Y44440000D03*
X8895000Y36820000D03*
X11435000Y36820000D03*
X13975000Y36820000D03*
X16515000Y36820000D03*
X19055000Y36820000D03*
X21595000Y36820000D03*
X24135000Y36820000D03*
X26675000Y36820000D03*
X29215000Y36820000D03*
X31755000Y36820000D03*
X34295000Y36820000D03*
X36835000Y36820000D03*
%TD*%
D10*
%TO.C,U6*%
X102875000Y44440000D03*
D11*
X100335000Y44440000D03*
X97795000Y44440000D03*
X95255000Y44440000D03*
X92715000Y44440000D03*
X90175000Y44440000D03*
X87635000Y44440000D03*
X85095000Y44440000D03*
X82555000Y44440000D03*
X80015000Y44440000D03*
X77475000Y44440000D03*
X74935000Y44440000D03*
X74935000Y36820000D03*
X77475000Y36820000D03*
X80015000Y36820000D03*
X82555000Y36820000D03*
X85095000Y36820000D03*
X87635000Y36820000D03*
X90175000Y36820000D03*
X92715000Y36820000D03*
X95255000Y36820000D03*
X97795000Y36820000D03*
X100335000Y36820000D03*
X102875000Y36820000D03*
%TD*%
D12*
%TO.C,TP2*%
X96520000Y27940000D03*
%TD*%
D21*
%TO.C,BT1*%
X107766314Y17779983D03*
D22*
X128256314Y17779983D03*
%TD*%
D10*
%TO.C,U7*%
X69855000Y44440000D03*
D11*
X67315000Y44440000D03*
X64775000Y44440000D03*
X62235000Y44440000D03*
X59695000Y44440000D03*
X57155000Y44440000D03*
X54615000Y44440000D03*
X52075000Y44440000D03*
X49535000Y44440000D03*
X46995000Y44440000D03*
X44455000Y44440000D03*
X41915000Y44440000D03*
X41915000Y36820000D03*
X44455000Y36820000D03*
X46995000Y36820000D03*
X49535000Y36820000D03*
X52075000Y36820000D03*
X54615000Y36820000D03*
X57155000Y36820000D03*
X59695000Y36820000D03*
X62235000Y36820000D03*
X64775000Y36820000D03*
X67315000Y36820000D03*
X69855000Y36820000D03*
%TD*%
D16*
%TO.C,J4*%
X12700000Y17780000D03*
D17*
X15240000Y17780000D03*
X12700000Y15240000D03*
X15240000Y15240000D03*
X12700000Y12700000D03*
X15240000Y12700000D03*
%TD*%
D15*
%TO.C,D3*%
X109920000Y72390000D03*
X109920000Y69850000D03*
X109920000Y67310000D03*
X109920000Y64770000D03*
X109920000Y62230000D03*
X109920000Y59690000D03*
X109920000Y57150000D03*
X109920000Y54610000D03*
X133920000Y54610000D03*
X133920000Y57150000D03*
X133920000Y59690000D03*
X133920000Y62230000D03*
X133920000Y64770000D03*
X133920000Y67310000D03*
X133920000Y69850000D03*
X133920000Y72390000D03*
%TD*%
M02*
