M48
; DRILL file {KiCad (6.0.5-0)} date Friday, 22 July 2022 at 01:22:44
; FORMAT={-:-/ absolute / inch / decimal}
; #@! TF.CreationDate,2022-07-22T01:22:44-04:00
; #@! TF.GenerationSoftware,Kicad,Pcbnew,(6.0.5-0)
; #@! TF.FileFunction,MixedPlating,1,2
FMAT,2
INCH
; #@! TA.AperFunction,Plated,PTH,ViaDrill
T1C0.0160
; #@! TA.AperFunction,Plated,PTH,ComponentDrill
T2C0.0300
; #@! TA.AperFunction,Plated,PTH,ComponentDrill
T3C0.0315
; #@! TA.AperFunction,Plated,PTH,ComponentDrill
T4C0.0394
; #@! TA.AperFunction,Plated,PTH,ComponentDrill
T5C0.0433
; #@! TA.AperFunction,Plated,PTH,ComponentDrill
T6C0.0591
; #@! TA.AperFunction,NonPlated,NPTH,ComponentDrill
T7C0.1260
%
G90
G05
T1
X0.3Y0.8
X0.3425Y1.1575
X0.3457Y2.3535
X0.4Y2.4
X0.4Y0.4
X0.4039Y0.8969
X0.4638Y1.2118
X0.6Y0.4
X0.6Y0.3
X0.6008Y0.8969
X0.6019Y2.3153
X0.6606Y0.9756
X0.7Y0.8
X0.7Y0.6
X0.7Y0.5
X0.7189Y0.9756
X0.7787Y1.2118
X0.9Y0.7787
X0.9Y0.6
X0.9198Y2.1802
X0.9217Y2.078
X0.9551Y1.9598
X1.0Y2.5
X1.0Y2.4
X1.0Y2.3
X1.0Y0.6
X1.014Y1.4076
X1.0339Y2.1567
X1.0732Y2.1961
X1.1198Y2.0198
X1.1913Y1.8622
X1.2Y3.2
X1.3Y2.7
X1.3Y2.6
X1.3Y1.5
X1.3Y1.4
X1.4087Y1.1331
X1.4217Y1.9
X1.5Y1.5
X1.5Y1.356
X1.5198Y1.1198
X1.6Y1.4
X1.6Y1.3
X1.6347Y1.8
X1.7Y1.5
X1.7Y0.8
X1.7Y0.4
X1.7198Y1.1198
X1.769Y2.069
X1.8Y3.2
X1.8Y2.5
X1.8Y2.3
X1.8Y1.8
X1.8Y1.228
X1.8Y1.0
X1.8Y0.5
X1.828Y1.1059
X1.8637Y1.2
X1.9Y2.4
X1.9Y1.8
X1.9Y1.1
X1.9206Y1.981
X1.97Y0.7374
X1.972Y1.9
X2.0Y1.7
X2.0Y0.8941
X2.0Y0.7
X2.0197Y1.8197
X2.0198Y0.8198
X2.06Y0.7
X2.072Y2.0887
X2.0885Y1.628
X2.1Y1.9
X2.1Y1.5
X2.1Y1.3
X2.1Y1.2
X2.1Y1.16
X2.1Y0.7
X2.2Y0.9
X2.2Y0.5941
X2.2Y0.5
X2.2Y0.4
X2.228Y1.8802
X2.3Y2.5
X2.3Y2.4
X2.3Y2.1
X2.3Y1.8
X2.3Y1.5
X2.3253Y1.3
X2.3283Y2.2283
X2.3692Y1.3692
X2.4Y2.4
X2.4Y2.0
X2.4Y1.5
X2.5Y3.2
X2.5Y1.8
X2.6Y1.5
X2.6Y1.3
X2.648Y0.5425
X2.7268Y0.7787
X2.7424Y2.0
X2.8Y1.8
X2.828Y1.7341
X2.8942Y1.0338
X2.9Y2.9
X2.9Y1.9
X2.9Y1.8
X2.9Y1.572
X2.9Y1.4
X2.9Y0.472
X2.9Y0.2
X2.928Y2.1996
X3.0Y2.5
X3.0Y1.5
X3.0Y1.028
X3.0Y0.472
X3.04Y1.028
X3.1Y3.2
X3.1Y1.8
X3.1Y1.028
X3.1Y0.472
X3.2Y1.3
X3.2386Y0.8181
X3.2802Y2.0198
X3.3Y1.9
X3.3Y1.5
X3.3Y1.0
X3.4Y2.0
X3.4Y1.8
X3.4Y1.628
X3.4Y1.5
X3.4Y1.3
X3.4Y1.2
X3.5Y1.8
X3.5Y0.4651
X3.5535Y1.015
X3.5991Y0.7091
X3.6Y2.5
X3.6Y2.4
X3.6998Y1.5002
X3.7Y2.4
X3.7Y2.2
X3.7Y2.1
X3.7Y0.7
X3.7Y0.6
X3.7Y0.3
X3.8Y3.2
X3.8Y1.3
X3.8Y0.4
X3.8838Y0.4766
X3.9Y1.5
X3.9Y1.4
X4.0Y2.2
X4.0Y1.7
X4.0Y1.628
X4.0Y1.572
X4.0Y0.9
X4.0Y0.7
X4.1Y1.5
X4.1Y1.4
X4.1Y0.4
X4.1217Y1.6882
X4.1767Y1.7
X4.2Y3.1
X4.2Y1.3
X4.4Y1.8
X4.4Y1.7
X4.4Y1.5
X4.5Y1.9
X4.5Y1.2
X4.6Y1.8
X4.6Y1.2
X4.7Y1.5
X4.7086Y1.8086
X4.7198Y1.9802
X4.8Y1.8
X4.8006Y1.5396
X4.9Y2.5
X4.9Y2.4
X4.9Y1.3
X4.9113Y1.372
X4.9315Y2.3142
X5.028Y1.6
X5.1Y2.3
X5.1Y0.9
X5.2Y3.2
X5.272Y1.5159
X5.3Y1.7
X5.3Y0.9
X5.3Y0.8
X5.3Y0.7
X5.3Y0.6
X5.3252Y1.9598
T2
X0.4276Y2.85
X0.4276Y2.75
X0.4276Y2.65
X0.4276Y2.55
X0.4276Y2.45
X0.4276Y2.35
X0.4276Y2.25
X0.4276Y2.15
X1.3724Y2.85
X1.3724Y2.75
X1.3724Y2.65
X1.3724Y2.55
X1.3724Y2.45
X1.3724Y2.35
X1.3724Y2.25
X1.3724Y2.15
X1.7276Y2.85
X1.7276Y2.75
X1.7276Y2.65
X1.7276Y2.55
X1.7276Y2.45
X1.7276Y2.35
X1.7276Y2.25
X1.7276Y2.15
X2.6724Y2.85
X2.6724Y2.75
X2.6724Y2.65
X2.6724Y2.55
X2.6724Y2.45
X2.6724Y2.35
X2.6724Y2.25
X2.6724Y2.15
X3.0276Y2.85
X3.0276Y2.75
X3.0276Y2.65
X3.0276Y2.55
X3.0276Y2.45
X3.0276Y2.35
X3.0276Y2.25
X3.0276Y2.15
X3.9724Y2.85
X3.9724Y2.75
X3.9724Y2.65
X3.9724Y2.55
X3.9724Y2.45
X3.9724Y2.35
X3.9724Y2.25
X3.9724Y2.15
X4.3276Y2.85
X4.3276Y2.75
X4.3276Y2.65
X4.3276Y2.55
X4.3276Y2.45
X4.3276Y2.35
X4.3276Y2.25
X4.3276Y2.15
X5.2724Y2.85
X5.2724Y2.75
X5.2724Y2.65
X5.2724Y2.55
X5.2724Y2.45
X5.2724Y2.35
X5.2724Y2.25
X5.2724Y2.15
T3
X0.3502Y1.7496
X0.3502Y1.4496
X0.4502Y1.7496
X0.4502Y1.4496
X0.5502Y1.7496
X0.5502Y1.4496
X0.6502Y1.7496
X0.6502Y1.4496
X0.7502Y1.7496
X0.7502Y1.4496
X0.8502Y1.7496
X0.8502Y1.4496
X0.9502Y1.7496
X0.9502Y1.4496
X1.0502Y1.7496
X1.0502Y1.4496
X1.1502Y1.7496
X1.1502Y1.4496
X1.2502Y1.7496
X1.2502Y1.4496
X1.3502Y1.7496
X1.3502Y1.4496
X1.4502Y1.7496
X1.4502Y1.4496
X1.6502Y1.7496
X1.6502Y1.4496
X1.7502Y1.7496
X1.7502Y1.4496
X1.8502Y1.7496
X1.8502Y1.4496
X1.9502Y1.7496
X1.9502Y1.4496
X2.0Y0.9496
X2.0Y0.6496
X2.0502Y1.7496
X2.0502Y1.4496
X2.1Y0.9496
X2.1Y0.6496
X2.1502Y1.7496
X2.1502Y1.4496
X2.2Y0.9496
X2.2Y0.6496
X2.2502Y1.7496
X2.2502Y1.4496
X2.3Y0.9496
X2.3Y0.6496
X2.3502Y1.7496
X2.3502Y1.4496
X2.4Y0.9496
X2.4Y0.6496
X2.4502Y1.7496
X2.4502Y1.4496
X2.5Y0.9496
X2.5Y0.6496
X2.5502Y1.7496
X2.5502Y1.4496
X2.6Y0.9496
X2.6Y0.6496
X2.6502Y1.7496
X2.6502Y1.4496
X2.7Y0.9496
X2.7Y0.6496
X2.7502Y1.7496
X2.7502Y1.4496
X2.8Y0.9496
X2.8Y0.6496
X2.9Y0.9496
X2.9Y0.6496
X2.9502Y1.7496
X2.9502Y1.4496
X3.0Y0.9496
X3.0Y0.6496
X3.0502Y1.7496
X3.0502Y1.4496
X3.1Y0.9496
X3.1Y0.6496
X3.1502Y1.7496
X3.1502Y1.4496
X3.2Y0.9496
X3.2Y0.6496
X3.2502Y1.7496
X3.2502Y1.4496
X3.3Y0.9496
X3.3Y0.6496
X3.3502Y1.7496
X3.3502Y1.4496
X3.4502Y1.7496
X3.4502Y1.4496
X3.5502Y1.7496
X3.5502Y1.4496
X3.6502Y1.7496
X3.6502Y1.4496
X3.7502Y1.7496
X3.7502Y1.4496
X3.7504Y0.5496
X3.7504Y0.4496
X3.7504Y0.3496
X3.7504Y0.2496
X3.8502Y1.7496
X3.8502Y1.4496
X3.9502Y1.7496
X3.9502Y1.4496
X4.0502Y1.7496
X4.0502Y1.4496
X4.0504Y0.5496
X4.0504Y0.4496
X4.0504Y0.3496
X4.0504Y0.2496
X4.2502Y1.7496
X4.2502Y1.4496
X4.3502Y1.7496
X4.3502Y1.4496
X4.4502Y1.7496
X4.4502Y1.4496
X4.5502Y1.7496
X4.5502Y1.4496
X4.6502Y1.7496
X4.6502Y1.4496
X4.7502Y1.7496
X4.7502Y1.4496
X4.8Y3.3
X4.8502Y1.7496
X4.8502Y1.4496
X4.9339Y3.3
X4.9502Y1.7496
X4.9502Y1.4496
X5.0502Y1.7496
X5.0502Y1.4496
X5.1502Y1.7496
X5.1502Y1.4496
X5.2502Y1.7496
X5.2502Y1.4496
X5.3502Y1.7496
X5.3502Y1.4496
T4
X0.5Y0.7
X0.5Y0.6
X0.5Y0.5
X0.6Y0.7
X0.6Y0.6
X0.6Y0.5
X0.8Y0.6833
X0.8Y0.5833
X0.8Y0.4833
X0.8Y0.3833
X0.8Y0.2833
X0.8Y0.1833
X1.2Y0.4
X1.3969Y0.4
X3.8Y1.1
X4.1Y1.1
X5.4Y1.1
X5.4Y1.0
X5.4Y0.9
X5.4Y0.8
X5.4Y0.7
X5.4Y0.6
T6
X4.2428Y0.7
X5.0495Y0.7
T7
X0.2465Y3.3378
X0.2465Y0.1882
X5.3646Y3.3378
X5.3646Y0.1882
T5
G00X2.339Y0.3319
M15
G01X2.339Y0.3594
M16
G05
G00X2.4433Y0.1606
M15
G01X2.4709Y0.1606
M16
G05
G00X2.5752Y0.3319
M15
G01X2.5752Y0.3594
M16
G05
T0
M30
